<mxfile host="app.diagrams.net" modified="2020-12-10T12:52:25.990Z" agent="5.0 (Windows)" etag="c_yI4uaL06MBDSmta_YK" version="14.0.0" type="github">
  <diagram id="C5RBs43oDa-KdzZeNtuy" name="Page-1">
    <mxGraphModel dx="2894" dy="1813" grid="1" gridSize="10" guides="1" tooltips="1" connect="1" arrows="1" fold="1" page="1" pageScale="1" pageWidth="827" pageHeight="1169" math="0" shadow="0">
      <root>
        <mxCell id="WIyWlLk6GJQsqaUBKTNV-0" />
        <mxCell id="WIyWlLk6GJQsqaUBKTNV-1" parent="WIyWlLk6GJQsqaUBKTNV-0" />
        <mxCell id="T6Tp6hZ9WiSjCjkS2Gaq-32" style="edgeStyle=orthogonalEdgeStyle;rounded=0;orthogonalLoop=1;jettySize=auto;html=1;exitX=0.5;exitY=0;exitDx=0;exitDy=0;entryX=0.5;entryY=1;entryDx=0;entryDy=0;startSize=10;endArrow=block;endFill=0;endSize=14;" parent="WIyWlLk6GJQsqaUBKTNV-1" source="vrZAYbkZ-h7YE_ZRuM2D-0" target="vrZAYbkZ-h7YE_ZRuM2D-16" edge="1">
          <mxGeometry relative="1" as="geometry" />
        </mxCell>
        <mxCell id="vrZAYbkZ-h7YE_ZRuM2D-0" value="Alpha" style="swimlane;fontStyle=1;align=center;verticalAlign=top;childLayout=stackLayout;horizontal=1;startSize=26;horizontalStack=0;resizeParent=1;resizeParentMax=0;resizeLast=0;collapsible=1;marginBottom=0;" parent="WIyWlLk6GJQsqaUBKTNV-1" vertex="1" collapsed="1">
          <mxGeometry x="620" y="352" width="60" height="26" as="geometry">
            <mxRectangle x="-300" y="561" width="160" height="86" as="alternateBounds" />
          </mxGeometry>
        </mxCell>
        <mxCell id="-q3Nb7MG7wlZvP0WR283-77" value="+ Alpha()" style="text;strokeColor=none;fillColor=none;align=left;verticalAlign=top;spacingLeft=4;spacingRight=4;overflow=hidden;rotatable=0;points=[[0,0.5],[1,0.5]];portConstraint=eastwest;" parent="vrZAYbkZ-h7YE_ZRuM2D-0" vertex="1">
          <mxGeometry y="26" width="60" height="26" as="geometry" />
        </mxCell>
        <mxCell id="-q3Nb7MG7wlZvP0WR283-78" value="" style="line;strokeWidth=1;fillColor=none;align=left;verticalAlign=middle;spacingTop=-1;spacingLeft=3;spacingRight=3;rotatable=0;labelPosition=right;points=[];portConstraint=eastwest;" parent="vrZAYbkZ-h7YE_ZRuM2D-0" vertex="1">
          <mxGeometry y="52" width="60" height="8" as="geometry" />
        </mxCell>
        <mxCell id="vrZAYbkZ-h7YE_ZRuM2D-3" value="+duplicarVelocidad()" style="text;strokeColor=none;fillColor=none;align=left;verticalAlign=top;spacingLeft=4;spacingRight=4;overflow=hidden;rotatable=0;points=[[0,0.5],[1,0.5]];portConstraint=eastwest;" parent="vrZAYbkZ-h7YE_ZRuM2D-0" vertex="1">
          <mxGeometry y="60" width="60" height="26" as="geometry" />
        </mxCell>
        <mxCell id="T6Tp6hZ9WiSjCjkS2Gaq-33" style="edgeStyle=orthogonalEdgeStyle;rounded=0;orthogonalLoop=1;jettySize=auto;html=1;exitX=0.5;exitY=0;exitDx=0;exitDy=0;startSize=10;endArrow=block;endFill=0;endSize=14;entryX=0.5;entryY=1;entryDx=0;entryDy=0;" parent="WIyWlLk6GJQsqaUBKTNV-1" source="vrZAYbkZ-h7YE_ZRuM2D-4" target="vrZAYbkZ-h7YE_ZRuM2D-16" edge="1">
          <mxGeometry relative="1" as="geometry">
            <mxPoint x="705" y="292" as="targetPoint" />
          </mxGeometry>
        </mxCell>
        <mxCell id="vrZAYbkZ-h7YE_ZRuM2D-4" value="Beta" style="swimlane;fontStyle=1;align=center;verticalAlign=top;childLayout=stackLayout;horizontal=1;startSize=26;horizontalStack=0;resizeParent=1;resizeParentMax=0;resizeLast=0;collapsible=1;marginBottom=0;" parent="WIyWlLk6GJQsqaUBKTNV-1" vertex="1" collapsed="1">
          <mxGeometry x="730" y="352" width="60" height="26" as="geometry">
            <mxRectangle x="-100" y="565.01" width="160" height="52" as="alternateBounds" />
          </mxGeometry>
        </mxCell>
        <mxCell id="-q3Nb7MG7wlZvP0WR283-89" value="+Beta()" style="text;strokeColor=none;fillColor=none;align=left;verticalAlign=top;spacingLeft=4;spacingRight=4;overflow=hidden;rotatable=0;points=[[0,0.5],[1,0.5]];portConstraint=eastwest;" parent="vrZAYbkZ-h7YE_ZRuM2D-4" vertex="1">
          <mxGeometry y="26" width="60" height="26" as="geometry" />
        </mxCell>
        <mxCell id="vrZAYbkZ-h7YE_ZRuM2D-8" value="Entidad" style="swimlane;fontStyle=3;align=center;verticalAlign=top;childLayout=stackLayout;horizontal=1;startSize=26;horizontalStack=0;resizeParent=1;resizeParentMax=0;resizeLast=0;collapsible=1;marginBottom=0;" parent="WIyWlLk6GJQsqaUBKTNV-1" vertex="1" collapsed="1">
          <mxGeometry x="380" y="-80" width="70" height="26" as="geometry">
            <mxRectangle x="380" y="-80" width="160" height="160" as="alternateBounds" />
          </mxGeometry>
        </mxCell>
        <mxCell id="vrZAYbkZ-h7YE_ZRuM2D-9" value="#velocidad:int&#xa;#posX:int&#xa;#posY:int" style="text;strokeColor=none;fillColor=none;align=left;verticalAlign=top;spacingLeft=4;spacingRight=4;overflow=hidden;rotatable=0;points=[[0,0.5],[1,0.5]];portConstraint=eastwest;" parent="vrZAYbkZ-h7YE_ZRuM2D-8" vertex="1">
          <mxGeometry y="26" width="70" height="54" as="geometry" />
        </mxCell>
        <mxCell id="vrZAYbkZ-h7YE_ZRuM2D-10" value="" style="line;strokeWidth=1;fillColor=none;align=left;verticalAlign=middle;spacingTop=-1;spacingLeft=3;spacingRight=3;rotatable=0;labelPosition=right;points=[];portConstraint=eastwest;" parent="vrZAYbkZ-h7YE_ZRuM2D-8" vertex="1">
          <mxGeometry y="80" width="70" height="8" as="geometry" />
        </mxCell>
        <mxCell id="vrZAYbkZ-h7YE_ZRuM2D-11" value="+mover()&#xa;+getPosX():int&#xa;+getPosY():int&#xa;+accept(Visitor v)" style="text;strokeColor=none;fillColor=none;align=left;verticalAlign=top;spacingLeft=4;spacingRight=4;overflow=hidden;rotatable=0;points=[[0,0.5],[1,0.5]];portConstraint=eastwest;" parent="vrZAYbkZ-h7YE_ZRuM2D-8" vertex="1">
          <mxGeometry y="88" width="70" height="72" as="geometry" />
        </mxCell>
        <mxCell id="T6Tp6hZ9WiSjCjkS2Gaq-30" style="edgeStyle=orthogonalEdgeStyle;rounded=0;orthogonalLoop=1;jettySize=auto;html=1;exitX=0.5;exitY=0;exitDx=0;exitDy=0;entryX=0.5;entryY=1;entryDx=0;entryDy=0;startSize=10;endArrow=block;endFill=0;endSize=14;" parent="WIyWlLk6GJQsqaUBKTNV-1" target="vrZAYbkZ-h7YE_ZRuM2D-20" edge="1">
          <mxGeometry relative="1" as="geometry">
            <mxPoint x="885" y="262" as="sourcePoint" />
            <Array as="points">
              <mxPoint x="885" y="234" />
              <mxPoint x="795" y="234" />
            </Array>
          </mxGeometry>
        </mxCell>
        <mxCell id="vrZAYbkZ-h7YE_ZRuM2D-12" value="NaveJugador" style="swimlane;fontStyle=1;align=center;verticalAlign=top;childLayout=stackLayout;horizontal=1;startSize=26;horizontalStack=0;resizeParent=1;resizeParentMax=0;resizeLast=0;collapsible=1;marginBottom=0;" parent="WIyWlLk6GJQsqaUBKTNV-1" vertex="1" collapsed="1">
          <mxGeometry x="820" y="262" width="120" height="26" as="geometry">
            <mxRectangle x="70" y="360" width="160" height="60" as="alternateBounds" />
          </mxGeometry>
        </mxCell>
        <mxCell id="vrZAYbkZ-h7YE_ZRuM2D-13" value="+NavePersonaje()" style="text;strokeColor=none;fillColor=none;align=left;verticalAlign=top;spacingLeft=4;spacingRight=4;overflow=hidden;rotatable=0;points=[[0,0.5],[1,0.5]];portConstraint=eastwest;" parent="vrZAYbkZ-h7YE_ZRuM2D-12" vertex="1">
          <mxGeometry y="26" width="120" height="26" as="geometry" />
        </mxCell>
        <mxCell id="vrZAYbkZ-h7YE_ZRuM2D-14" value="" style="line;strokeWidth=1;fillColor=none;align=left;verticalAlign=middle;spacingTop=-1;spacingLeft=3;spacingRight=3;rotatable=0;labelPosition=right;points=[];portConstraint=eastwest;" parent="vrZAYbkZ-h7YE_ZRuM2D-12" vertex="1">
          <mxGeometry y="52" width="120" height="8" as="geometry" />
        </mxCell>
        <mxCell id="T6Tp6hZ9WiSjCjkS2Gaq-29" style="edgeStyle=orthogonalEdgeStyle;rounded=0;orthogonalLoop=1;jettySize=auto;html=1;exitX=0.5;exitY=0;exitDx=0;exitDy=0;entryX=0.5;entryY=1;entryDx=0;entryDy=0;startSize=10;endArrow=block;endFill=0;endSize=14;" parent="WIyWlLk6GJQsqaUBKTNV-1" source="vrZAYbkZ-h7YE_ZRuM2D-16" target="vrZAYbkZ-h7YE_ZRuM2D-20" edge="1">
          <mxGeometry relative="1" as="geometry" />
        </mxCell>
        <mxCell id="vrZAYbkZ-h7YE_ZRuM2D-16" value="NaveEnemiga" style="swimlane;fontStyle=3;align=center;verticalAlign=top;childLayout=stackLayout;horizontal=1;startSize=26;horizontalStack=0;resizeParent=1;resizeParentMax=0;resizeLast=0;collapsible=1;marginBottom=0;" parent="WIyWlLk6GJQsqaUBKTNV-1" vertex="1" collapsed="1">
          <mxGeometry x="645" y="262" width="120" height="26" as="geometry">
            <mxRectangle x="-190" y="360" width="160" height="78" as="alternateBounds" />
          </mxGeometry>
        </mxCell>
        <mxCell id="vrZAYbkZ-h7YE_ZRuM2D-17" value="#rango:int&#xa;#resistenciaDanio:int" style="text;strokeColor=none;fillColor=none;align=left;verticalAlign=top;spacingLeft=4;spacingRight=4;overflow=hidden;rotatable=0;points=[[0,0.5],[1,0.5]];portConstraint=eastwest;" parent="vrZAYbkZ-h7YE_ZRuM2D-16" vertex="1">
          <mxGeometry y="26" width="120" height="44" as="geometry" />
        </mxCell>
        <mxCell id="vrZAYbkZ-h7YE_ZRuM2D-18" value="" style="line;strokeWidth=1;fillColor=none;align=left;verticalAlign=middle;spacingTop=-1;spacingLeft=3;spacingRight=3;rotatable=0;labelPosition=right;points=[];portConstraint=eastwest;" parent="vrZAYbkZ-h7YE_ZRuM2D-16" vertex="1">
          <mxGeometry y="70" width="120" height="8" as="geometry" />
        </mxCell>
        <mxCell id="T6Tp6hZ9WiSjCjkS2Gaq-36" style="edgeStyle=orthogonalEdgeStyle;rounded=0;orthogonalLoop=1;jettySize=auto;html=1;exitX=0;exitY=0.5;exitDx=0;exitDy=0;entryX=1;entryY=0.5;entryDx=0;entryDy=0;startSize=14;endArrow=none;endFill=0;endSize=14;startArrow=diamondThin;startFill=0;" parent="WIyWlLk6GJQsqaUBKTNV-1" source="vrZAYbkZ-h7YE_ZRuM2D-20" target="vrZAYbkZ-h7YE_ZRuM2D-56" edge="1">
          <mxGeometry relative="1" as="geometry">
            <mxPoint x="-4" y="181" as="sourcePoint" />
            <mxPoint x="191" y="181" as="targetPoint" />
          </mxGeometry>
        </mxCell>
        <mxCell id="T6Tp6hZ9WiSjCjkS2Gaq-71" style="edgeStyle=orthogonalEdgeStyle;rounded=0;orthogonalLoop=1;jettySize=auto;html=1;exitX=1;exitY=0.5;exitDx=0;exitDy=0;startArrow=diamondThin;startFill=0;startSize=14;endArrow=none;endFill=0;endSize=14;" parent="WIyWlLk6GJQsqaUBKTNV-1" source="vrZAYbkZ-h7YE_ZRuM2D-20" target="vrZAYbkZ-h7YE_ZRuM2D-33" edge="1">
          <mxGeometry relative="1" as="geometry" />
        </mxCell>
        <mxCell id="T6Tp6hZ9WiSjCjkS2Gaq-81" style="edgeStyle=orthogonalEdgeStyle;rounded=0;orthogonalLoop=1;jettySize=auto;html=1;exitX=0.5;exitY=0;exitDx=0;exitDy=0;entryX=0.5;entryY=1;entryDx=0;entryDy=0;startArrow=none;startFill=0;startSize=14;endArrow=block;endFill=0;endSize=14;" parent="WIyWlLk6GJQsqaUBKTNV-1" source="vrZAYbkZ-h7YE_ZRuM2D-20" target="vrZAYbkZ-h7YE_ZRuM2D-8" edge="1">
          <mxGeometry relative="1" as="geometry" />
        </mxCell>
        <mxCell id="vrZAYbkZ-h7YE_ZRuM2D-20" value="Nave" style="swimlane;fontStyle=3;align=center;verticalAlign=top;childLayout=stackLayout;horizontal=1;startSize=26;horizontalStack=0;resizeParent=1;resizeParentMax=0;resizeLast=0;collapsible=1;marginBottom=0;" parent="WIyWlLk6GJQsqaUBKTNV-1" vertex="1" collapsed="1">
          <mxGeometry x="765" y="172" width="60" height="26" as="geometry">
            <mxRectangle x="-80" y="150" width="160" height="130" as="alternateBounds" />
          </mxGeometry>
        </mxCell>
        <mxCell id="vrZAYbkZ-h7YE_ZRuM2D-21" value="#cargaViral:int" style="text;strokeColor=none;fillColor=none;align=left;verticalAlign=top;spacingLeft=4;spacingRight=4;overflow=hidden;rotatable=0;points=[[0,0.5],[1,0.5]];portConstraint=eastwest;" parent="vrZAYbkZ-h7YE_ZRuM2D-20" vertex="1">
          <mxGeometry y="26" width="60" height="24" as="geometry" />
        </mxCell>
        <mxCell id="vrZAYbkZ-h7YE_ZRuM2D-22" value="" style="line;strokeWidth=1;fillColor=none;align=left;verticalAlign=middle;spacingTop=-1;spacingLeft=3;spacingRight=3;rotatable=0;labelPosition=right;points=[];portConstraint=eastwest;" parent="vrZAYbkZ-h7YE_ZRuM2D-20" vertex="1">
          <mxGeometry y="50" width="60" height="8" as="geometry" />
        </mxCell>
        <mxCell id="vrZAYbkZ-h7YE_ZRuM2D-23" value="+getVida():int&#xa;+setVida(int vida)&#xa;+getDanio():int&#xa;+setDanio(int danio)" style="text;strokeColor=none;fillColor=none;align=left;verticalAlign=top;spacingLeft=4;spacingRight=4;overflow=hidden;rotatable=0;points=[[0,0.5],[1,0.5]];portConstraint=eastwest;" parent="vrZAYbkZ-h7YE_ZRuM2D-20" vertex="1">
          <mxGeometry y="58" width="60" height="72" as="geometry" />
        </mxCell>
        <mxCell id="T6Tp6hZ9WiSjCjkS2Gaq-77" style="edgeStyle=orthogonalEdgeStyle;rounded=0;orthogonalLoop=1;jettySize=auto;html=1;exitX=0.5;exitY=0;exitDx=0;exitDy=0;entryX=0.5;entryY=1;entryDx=0;entryDy=0;startArrow=none;startFill=0;startSize=14;endArrow=block;endFill=0;endSize=14;" parent="WIyWlLk6GJQsqaUBKTNV-1" source="vrZAYbkZ-h7YE_ZRuM2D-28" target="vrZAYbkZ-h7YE_ZRuM2D-8" edge="1">
          <mxGeometry relative="1" as="geometry" />
        </mxCell>
        <mxCell id="vrZAYbkZ-h7YE_ZRuM2D-28" value="Proyectil" style="swimlane;fontStyle=3;align=center;verticalAlign=top;childLayout=stackLayout;horizontal=1;startSize=26;horizontalStack=0;resizeParent=1;resizeParentMax=0;resizeLast=0;collapsible=1;marginBottom=0;" parent="WIyWlLk6GJQsqaUBKTNV-1" vertex="1" collapsed="1">
          <mxGeometry x="-50" y="172" width="80" height="26" as="geometry">
            <mxRectangle x="510" y="170" width="160" height="56" as="alternateBounds" />
          </mxGeometry>
        </mxCell>
        <mxCell id="-q3Nb7MG7wlZvP0WR283-51" value="#danio:int" style="text;strokeColor=none;fillColor=none;align=left;verticalAlign=top;spacingLeft=4;spacingRight=4;overflow=hidden;rotatable=0;points=[[0,0.5],[1,0.5]];portConstraint=eastwest;" parent="vrZAYbkZ-h7YE_ZRuM2D-28" vertex="1">
          <mxGeometry y="26" width="80" height="26" as="geometry" />
        </mxCell>
        <mxCell id="vrZAYbkZ-h7YE_ZRuM2D-30" value="" style="line;strokeWidth=1;fillColor=none;align=left;verticalAlign=middle;spacingTop=-1;spacingLeft=3;spacingRight=3;rotatable=0;labelPosition=right;points=[];portConstraint=eastwest;" parent="vrZAYbkZ-h7YE_ZRuM2D-28" vertex="1">
          <mxGeometry y="52" width="80" height="4" as="geometry" />
        </mxCell>
        <mxCell id="T6Tp6hZ9WiSjCjkS2Gaq-80" style="edgeStyle=orthogonalEdgeStyle;rounded=0;orthogonalLoop=1;jettySize=auto;html=1;exitX=0.5;exitY=0;exitDx=0;exitDy=0;startArrow=none;startFill=0;startSize=14;endArrow=block;endFill=0;endSize=14;entryX=0.5;entryY=1;entryDx=0;entryDy=0;" parent="WIyWlLk6GJQsqaUBKTNV-1" source="vrZAYbkZ-h7YE_ZRuM2D-33" target="vrZAYbkZ-h7YE_ZRuM2D-8" edge="1">
          <mxGeometry relative="1" as="geometry">
            <mxPoint x="590" y="10" as="targetPoint" />
          </mxGeometry>
        </mxCell>
        <mxCell id="vrZAYbkZ-h7YE_ZRuM2D-33" value="Premio" style="swimlane;fontStyle=3;align=center;verticalAlign=top;childLayout=stackLayout;horizontal=1;startSize=26;horizontalStack=0;resizeParent=1;resizeParentMax=0;resizeLast=0;collapsible=1;marginBottom=0;" parent="WIyWlLk6GJQsqaUBKTNV-1" vertex="1" collapsed="1">
          <mxGeometry x="1160" y="172" width="70" height="26" as="geometry">
            <mxRectangle x="1130" y="167" width="160" height="60" as="alternateBounds" />
          </mxGeometry>
        </mxCell>
        <mxCell id="vrZAYbkZ-h7YE_ZRuM2D-35" value="" style="line;strokeWidth=1;fillColor=none;align=left;verticalAlign=middle;spacingTop=-1;spacingLeft=3;spacingRight=3;rotatable=0;labelPosition=right;points=[];portConstraint=eastwest;" parent="vrZAYbkZ-h7YE_ZRuM2D-33" vertex="1">
          <mxGeometry y="26" width="70" height="8" as="geometry" />
        </mxCell>
        <mxCell id="vrZAYbkZ-h7YE_ZRuM2D-36" value="+accionar()" style="text;strokeColor=none;fillColor=none;align=left;verticalAlign=top;spacingLeft=4;spacingRight=4;overflow=hidden;rotatable=0;points=[[0,0.5],[1,0.5]];portConstraint=eastwest;" parent="vrZAYbkZ-h7YE_ZRuM2D-33" vertex="1">
          <mxGeometry y="34" width="70" height="26" as="geometry" />
        </mxCell>
        <mxCell id="vrZAYbkZ-h7YE_ZRuM2D-48" style="edgeStyle=none;rounded=0;orthogonalLoop=1;jettySize=auto;html=1;exitX=0.5;exitY=0;exitDx=0;exitDy=0;startArrow=none;startFill=0;endArrow=none;endFill=0;" parent="WIyWlLk6GJQsqaUBKTNV-1" source="vrZAYbkZ-h7YE_ZRuM2D-37" edge="1">
          <mxGeometry relative="1" as="geometry">
            <mxPoint x="1240" y="286" as="targetPoint" />
            <Array as="points">
              <mxPoint x="1075" y="286" />
            </Array>
          </mxGeometry>
        </mxCell>
        <mxCell id="vrZAYbkZ-h7YE_ZRuM2D-37" value="Temporal" style="swimlane;fontStyle=3;align=center;verticalAlign=top;childLayout=stackLayout;horizontal=1;startSize=26;horizontalStack=0;resizeParent=1;resizeParentMax=0;resizeLast=0;collapsible=1;marginBottom=0;" parent="WIyWlLk6GJQsqaUBKTNV-1" vertex="1" collapsed="1">
          <mxGeometry x="1030" y="382" width="90" height="26" as="geometry">
            <mxRectangle x="1030" y="416" width="160" height="34" as="alternateBounds" />
          </mxGeometry>
        </mxCell>
        <mxCell id="vrZAYbkZ-h7YE_ZRuM2D-39" value="" style="line;strokeWidth=1;fillColor=none;align=left;verticalAlign=middle;spacingTop=-1;spacingLeft=3;spacingRight=3;rotatable=0;labelPosition=right;points=[];portConstraint=eastwest;" parent="vrZAYbkZ-h7YE_ZRuM2D-37" vertex="1">
          <mxGeometry y="26" width="90" height="8" as="geometry" />
        </mxCell>
        <mxCell id="vrZAYbkZ-h7YE_ZRuM2D-47" style="edgeStyle=none;rounded=0;orthogonalLoop=1;jettySize=auto;html=1;startArrow=none;startFill=0;endArrow=block;endFill=0;endSize=14;entryX=0.5;entryY=1;entryDx=0;entryDy=0;" parent="WIyWlLk6GJQsqaUBKTNV-1" target="vrZAYbkZ-h7YE_ZRuM2D-33" edge="1">
          <mxGeometry relative="1" as="geometry">
            <mxPoint x="1370" y="376" as="sourcePoint" />
            <Array as="points">
              <mxPoint x="1370" y="286" />
              <mxPoint x="1230" y="286" />
              <mxPoint x="1195" y="286" />
            </Array>
            <mxPoint x="1191" y="193" as="targetPoint" />
          </mxGeometry>
        </mxCell>
        <mxCell id="vrZAYbkZ-h7YE_ZRuM2D-41" value="Precioso" style="swimlane;fontStyle=3;align=center;verticalAlign=top;childLayout=stackLayout;horizontal=1;startSize=26;horizontalStack=0;resizeParent=1;resizeParentMax=0;resizeLast=0;collapsible=1;marginBottom=0;" parent="WIyWlLk6GJQsqaUBKTNV-1" vertex="1" collapsed="1">
          <mxGeometry x="1330" y="378" width="80" height="26" as="geometry">
            <mxRectangle x="1280" y="413" width="160" height="34" as="alternateBounds" />
          </mxGeometry>
        </mxCell>
        <mxCell id="vrZAYbkZ-h7YE_ZRuM2D-43" value="" style="line;strokeWidth=1;fillColor=none;align=left;verticalAlign=middle;spacingTop=-1;spacingLeft=3;spacingRight=3;rotatable=0;labelPosition=right;points=[];portConstraint=eastwest;" parent="vrZAYbkZ-h7YE_ZRuM2D-41" vertex="1">
          <mxGeometry y="26" width="80" height="8" as="geometry" />
        </mxCell>
        <mxCell id="T6Tp6hZ9WiSjCjkS2Gaq-78" style="edgeStyle=orthogonalEdgeStyle;rounded=0;orthogonalLoop=1;jettySize=auto;html=1;exitX=0.5;exitY=0;exitDx=0;exitDy=0;startArrow=none;startFill=0;startSize=14;endArrow=block;endFill=0;endSize=14;" parent="WIyWlLk6GJQsqaUBKTNV-1" source="vrZAYbkZ-h7YE_ZRuM2D-56" target="vrZAYbkZ-h7YE_ZRuM2D-8" edge="1">
          <mxGeometry relative="1" as="geometry">
            <mxPoint x="440" as="targetPoint" />
          </mxGeometry>
        </mxCell>
        <mxCell id="vrZAYbkZ-h7YE_ZRuM2D-56" value="Arma" style="swimlane;fontStyle=3;align=center;verticalAlign=top;childLayout=stackLayout;horizontal=1;startSize=26;horizontalStack=0;resizeParent=1;resizeParentMax=0;resizeLast=0;collapsible=1;marginBottom=0;" parent="WIyWlLk6GJQsqaUBKTNV-1" vertex="1" collapsed="1">
          <mxGeometry x="330" y="172" width="60" height="26" as="geometry">
            <mxRectangle x="160" y="168" width="160" height="86" as="alternateBounds" />
          </mxGeometry>
        </mxCell>
        <mxCell id="AaCoDPqQn8ZPXxicRVi0-68" value="+Arma()" style="text;strokeColor=none;fillColor=none;align=left;verticalAlign=top;spacingLeft=4;spacingRight=4;overflow=hidden;rotatable=0;points=[[0,0.5],[1,0.5]];portConstraint=eastwest;" parent="vrZAYbkZ-h7YE_ZRuM2D-56" vertex="1">
          <mxGeometry y="26" width="60" height="26" as="geometry" />
        </mxCell>
        <mxCell id="AaCoDPqQn8ZPXxicRVi0-69" value="" style="line;strokeWidth=1;fillColor=none;align=left;verticalAlign=middle;spacingTop=-1;spacingLeft=3;spacingRight=3;rotatable=0;labelPosition=right;points=[];portConstraint=eastwest;" parent="vrZAYbkZ-h7YE_ZRuM2D-56" vertex="1">
          <mxGeometry y="52" width="60" height="8" as="geometry" />
        </mxCell>
        <mxCell id="vrZAYbkZ-h7YE_ZRuM2D-59" value="+disparar()" style="text;strokeColor=none;fillColor=none;align=left;verticalAlign=top;spacingLeft=4;spacingRight=4;overflow=hidden;rotatable=0;points=[[0,0.5],[1,0.5]];portConstraint=eastwest;" parent="vrZAYbkZ-h7YE_ZRuM2D-56" vertex="1">
          <mxGeometry y="60" width="60" height="26" as="geometry" />
        </mxCell>
        <mxCell id="vrZAYbkZ-h7YE_ZRuM2D-71" style="edgeStyle=none;rounded=0;orthogonalLoop=1;jettySize=auto;html=1;exitX=0.5;exitY=0;exitDx=0;exitDy=0;startArrow=none;startFill=0;endArrow=block;endFill=0;endSize=14;entryX=0.5;entryY=1;entryDx=0;entryDy=0;" parent="WIyWlLk6GJQsqaUBKTNV-1" source="vrZAYbkZ-h7YE_ZRuM2D-63" target="vrZAYbkZ-h7YE_ZRuM2D-28" edge="1">
          <mxGeometry relative="1" as="geometry">
            <mxPoint x="-11.920000000000073" y="237" as="targetPoint" />
            <Array as="points">
              <mxPoint x="-120" y="278" />
              <mxPoint x="-10" y="278" />
            </Array>
          </mxGeometry>
        </mxCell>
        <mxCell id="vrZAYbkZ-h7YE_ZRuM2D-63" value="ProyectilEnemigo" style="swimlane;fontStyle=3;align=center;verticalAlign=top;childLayout=stackLayout;horizontal=1;startSize=26;horizontalStack=0;resizeParent=1;resizeParentMax=0;resizeLast=0;collapsible=1;marginBottom=0;" parent="WIyWlLk6GJQsqaUBKTNV-1" vertex="1" collapsed="1">
          <mxGeometry x="-174" y="308" width="110" height="26" as="geometry">
            <mxRectangle x="400" y="320" width="160" height="86" as="alternateBounds" />
          </mxGeometry>
        </mxCell>
        <mxCell id="vrZAYbkZ-h7YE_ZRuM2D-64" value="#rangoPropagacion:int&#xa;" style="text;strokeColor=none;fillColor=none;align=left;verticalAlign=top;spacingLeft=4;spacingRight=4;overflow=hidden;rotatable=0;points=[[0,0.5],[1,0.5]];portConstraint=eastwest;" parent="vrZAYbkZ-h7YE_ZRuM2D-63" vertex="1">
          <mxGeometry y="26" width="110" height="26" as="geometry" />
        </mxCell>
        <mxCell id="vrZAYbkZ-h7YE_ZRuM2D-65" value="" style="line;strokeWidth=1;fillColor=none;align=left;verticalAlign=middle;spacingTop=-1;spacingLeft=3;spacingRight=3;rotatable=0;labelPosition=right;points=[];portConstraint=eastwest;" parent="vrZAYbkZ-h7YE_ZRuM2D-63" vertex="1">
          <mxGeometry y="52" width="110" height="8" as="geometry" />
        </mxCell>
        <mxCell id="AaCoDPqQn8ZPXxicRVi0-66" value="+PotadorVirus()" style="text;strokeColor=none;fillColor=none;align=left;verticalAlign=top;spacingLeft=4;spacingRight=4;overflow=hidden;rotatable=0;points=[[0,0.5],[1,0.5]];portConstraint=eastwest;" parent="vrZAYbkZ-h7YE_ZRuM2D-63" vertex="1">
          <mxGeometry y="60" width="110" height="26" as="geometry" />
        </mxCell>
        <mxCell id="vrZAYbkZ-h7YE_ZRuM2D-72" style="edgeStyle=none;rounded=0;orthogonalLoop=1;jettySize=auto;html=1;exitX=0.5;exitY=0;exitDx=0;exitDy=0;startArrow=none;startFill=0;endArrow=none;endFill=0;" parent="WIyWlLk6GJQsqaUBKTNV-1" source="vrZAYbkZ-h7YE_ZRuM2D-67" edge="1">
          <mxGeometry relative="1" as="geometry">
            <mxPoint x="-100" y="278" as="targetPoint" />
            <Array as="points">
              <mxPoint x="90" y="278" />
            </Array>
          </mxGeometry>
        </mxCell>
        <mxCell id="vrZAYbkZ-h7YE_ZRuM2D-67" value="ProyectilJugador" style="swimlane;fontStyle=1;align=center;verticalAlign=top;childLayout=stackLayout;horizontal=1;startSize=26;horizontalStack=0;resizeParent=1;resizeParentMax=0;resizeLast=0;collapsible=1;marginBottom=0;" parent="WIyWlLk6GJQsqaUBKTNV-1" vertex="1" collapsed="1">
          <mxGeometry x="40" y="308" width="110" height="26" as="geometry">
            <mxRectangle x="600" y="320" width="170" height="86" as="alternateBounds" />
          </mxGeometry>
        </mxCell>
        <mxCell id="vrZAYbkZ-h7YE_ZRuM2D-68" value="#capacidadDesinfecccion:int" style="text;strokeColor=none;fillColor=none;align=left;verticalAlign=top;spacingLeft=4;spacingRight=4;overflow=hidden;rotatable=0;points=[[0,0.5],[1,0.5]];portConstraint=eastwest;" parent="vrZAYbkZ-h7YE_ZRuM2D-67" vertex="1">
          <mxGeometry y="26" width="110" height="26" as="geometry" />
        </mxCell>
        <mxCell id="vrZAYbkZ-h7YE_ZRuM2D-69" value="" style="line;strokeWidth=1;fillColor=none;align=left;verticalAlign=middle;spacingTop=-1;spacingLeft=3;spacingRight=3;rotatable=0;labelPosition=right;points=[];portConstraint=eastwest;" parent="vrZAYbkZ-h7YE_ZRuM2D-67" vertex="1">
          <mxGeometry y="52" width="110" height="8" as="geometry" />
        </mxCell>
        <mxCell id="AaCoDPqQn8ZPXxicRVi0-67" value="+Sanitizante()" style="text;strokeColor=none;fillColor=none;align=left;verticalAlign=top;spacingLeft=4;spacingRight=4;overflow=hidden;rotatable=0;points=[[0,0.5],[1,0.5]];portConstraint=eastwest;" parent="vrZAYbkZ-h7YE_ZRuM2D-67" vertex="1">
          <mxGeometry y="60" width="110" height="26" as="geometry" />
        </mxCell>
        <mxCell id="T6Tp6hZ9WiSjCjkS2Gaq-150" style="edgeStyle=orthogonalEdgeStyle;rounded=0;orthogonalLoop=1;jettySize=auto;html=1;exitX=1;exitY=0.5;exitDx=0;exitDy=0;entryX=0.5;entryY=1;entryDx=0;entryDy=0;startArrow=none;startFill=0;startSize=14;endArrow=open;endFill=0;endSize=14;" parent="WIyWlLk6GJQsqaUBKTNV-1" source="vrZAYbkZ-h7YE_ZRuM2D-73" target="-q3Nb7MG7wlZvP0WR283-97" edge="1">
          <mxGeometry relative="1" as="geometry">
            <Array as="points">
              <mxPoint x="-810" y="355" />
              <mxPoint x="-810" y="535" />
              <mxPoint x="-695" y="535" />
            </Array>
          </mxGeometry>
        </mxCell>
        <mxCell id="T6Tp6hZ9WiSjCjkS2Gaq-151" style="edgeStyle=orthogonalEdgeStyle;rounded=0;orthogonalLoop=1;jettySize=auto;html=1;exitX=1;exitY=0.5;exitDx=0;exitDy=0;entryX=0.5;entryY=1;entryDx=0;entryDy=0;startArrow=none;startFill=0;startSize=14;endArrow=open;endFill=0;endSize=14;" parent="WIyWlLk6GJQsqaUBKTNV-1" source="vrZAYbkZ-h7YE_ZRuM2D-73" target="-q3Nb7MG7wlZvP0WR283-101" edge="1">
          <mxGeometry relative="1" as="geometry">
            <Array as="points">
              <mxPoint x="-830" y="355" />
              <mxPoint x="-830" y="560" />
              <mxPoint x="-540" y="560" />
            </Array>
          </mxGeometry>
        </mxCell>
        <mxCell id="T6Tp6hZ9WiSjCjkS2Gaq-152" style="edgeStyle=orthogonalEdgeStyle;rounded=0;orthogonalLoop=1;jettySize=auto;html=1;exitX=1;exitY=0.5;exitDx=0;exitDy=0;entryX=0.5;entryY=1;entryDx=0;entryDy=0;startArrow=none;startFill=0;startSize=14;endArrow=open;endFill=0;endSize=14;" parent="WIyWlLk6GJQsqaUBKTNV-1" source="vrZAYbkZ-h7YE_ZRuM2D-73" target="T6Tp6hZ9WiSjCjkS2Gaq-144" edge="1">
          <mxGeometry relative="1" as="geometry">
            <Array as="points">
              <mxPoint x="-850" y="355" />
              <mxPoint x="-850" y="570" />
              <mxPoint x="-390" y="570" />
            </Array>
          </mxGeometry>
        </mxCell>
        <mxCell id="T6Tp6hZ9WiSjCjkS2Gaq-161" style="edgeStyle=orthogonalEdgeStyle;rounded=0;orthogonalLoop=1;jettySize=auto;html=1;exitX=1;exitY=0.25;exitDx=0;exitDy=0;entryX=0.5;entryY=1;entryDx=0;entryDy=0;startArrow=none;startFill=0;startSize=14;endArrow=open;endFill=0;endSize=14;" parent="WIyWlLk6GJQsqaUBKTNV-1" source="vrZAYbkZ-h7YE_ZRuM2D-73" target="AaCoDPqQn8ZPXxicRVi0-18" edge="1">
          <mxGeometry relative="1" as="geometry">
            <Array as="points">
              <mxPoint x="-920" y="349" />
              <mxPoint x="-920" y="230" />
              <mxPoint x="-735" y="230" />
            </Array>
          </mxGeometry>
        </mxCell>
        <mxCell id="T6Tp6hZ9WiSjCjkS2Gaq-162" style="edgeStyle=orthogonalEdgeStyle;rounded=0;orthogonalLoop=1;jettySize=auto;html=1;exitX=1;exitY=0.25;exitDx=0;exitDy=0;entryX=0.5;entryY=1;entryDx=0;entryDy=0;startArrow=none;startFill=0;startSize=14;endArrow=open;endFill=0;endSize=14;" parent="WIyWlLk6GJQsqaUBKTNV-1" source="vrZAYbkZ-h7YE_ZRuM2D-73" target="AaCoDPqQn8ZPXxicRVi0-11" edge="1">
          <mxGeometry relative="1" as="geometry">
            <Array as="points">
              <mxPoint x="-850" y="349" />
              <mxPoint x="-850" y="250" />
              <mxPoint x="-540" y="250" />
            </Array>
          </mxGeometry>
        </mxCell>
        <mxCell id="T6Tp6hZ9WiSjCjkS2Gaq-163" style="edgeStyle=orthogonalEdgeStyle;rounded=0;orthogonalLoop=1;jettySize=auto;html=1;exitX=1;exitY=0.25;exitDx=0;exitDy=0;entryX=0.5;entryY=1;entryDx=0;entryDy=0;startArrow=none;startFill=0;startSize=14;endArrow=open;endFill=0;endSize=14;" parent="WIyWlLk6GJQsqaUBKTNV-1" source="vrZAYbkZ-h7YE_ZRuM2D-73" target="AaCoDPqQn8ZPXxicRVi0-15" edge="1">
          <mxGeometry relative="1" as="geometry">
            <Array as="points">
              <mxPoint x="-780" y="349" />
              <mxPoint x="-780" y="280" />
              <mxPoint x="-330" y="280" />
            </Array>
          </mxGeometry>
        </mxCell>
        <mxCell id="vrZAYbkZ-h7YE_ZRuM2D-73" value="Nivel" style="swimlane;fontStyle=3;align=center;verticalAlign=top;childLayout=stackLayout;horizontal=1;startSize=26;horizontalStack=0;resizeParent=1;resizeParentMax=0;resizeLast=0;collapsible=1;marginBottom=0;" parent="WIyWlLk6GJQsqaUBKTNV-1" vertex="1" collapsed="1">
          <mxGeometry x="-990" y="342" width="60" height="26" as="geometry">
            <mxRectangle x="-990" y="342" width="190" height="104" as="alternateBounds" />
          </mxGeometry>
        </mxCell>
        <mxCell id="vrZAYbkZ-h7YE_ZRuM2D-74" value="#cantidadTanda:int&#xa;#dificultad:int" style="text;strokeColor=none;fillColor=none;align=left;verticalAlign=top;spacingLeft=4;spacingRight=4;overflow=hidden;rotatable=0;points=[[0,0.5],[1,0.5]];portConstraint=eastwest;" parent="vrZAYbkZ-h7YE_ZRuM2D-73" vertex="1">
          <mxGeometry y="26" width="60" height="44" as="geometry" />
        </mxCell>
        <mxCell id="vrZAYbkZ-h7YE_ZRuM2D-75" value="" style="line;strokeWidth=1;fillColor=none;align=left;verticalAlign=middle;spacingTop=-1;spacingLeft=3;spacingRight=3;rotatable=0;labelPosition=right;points=[];portConstraint=eastwest;" parent="vrZAYbkZ-h7YE_ZRuM2D-73" vertex="1">
          <mxGeometry y="70" width="60" height="8" as="geometry" />
        </mxCell>
        <mxCell id="vrZAYbkZ-h7YE_ZRuM2D-76" value="+getInfectados():NaveInfectados" style="text;strokeColor=none;fillColor=none;align=left;verticalAlign=top;spacingLeft=4;spacingRight=4;overflow=hidden;rotatable=0;points=[[0,0.5],[1,0.5]];portConstraint=eastwest;" parent="vrZAYbkZ-h7YE_ZRuM2D-73" vertex="1">
          <mxGeometry y="78" width="60" height="26" as="geometry" />
        </mxCell>
        <mxCell id="vrZAYbkZ-h7YE_ZRuM2D-83" value="EntidadGrafica" style="swimlane;fontStyle=1;align=center;verticalAlign=top;childLayout=stackLayout;horizontal=1;startSize=26;horizontalStack=0;resizeParent=1;resizeParentMax=0;resizeLast=0;collapsible=1;marginBottom=0;" parent="WIyWlLk6GJQsqaUBKTNV-1" vertex="1" collapsed="1">
          <mxGeometry x="-100" y="-80" width="120" height="26" as="geometry">
            <mxRectangle x="750" y="-80" width="190" height="110" as="alternateBounds" />
          </mxGeometry>
        </mxCell>
        <mxCell id="vrZAYbkZ-h7YE_ZRuM2D-84" value="#graficos:ImageIcon[]" style="text;strokeColor=none;fillColor=none;align=left;verticalAlign=top;spacingLeft=4;spacingRight=4;overflow=hidden;rotatable=0;points=[[0,0.5],[1,0.5]];portConstraint=eastwest;" parent="vrZAYbkZ-h7YE_ZRuM2D-83" vertex="1">
          <mxGeometry y="26" width="120" height="26" as="geometry" />
        </mxCell>
        <mxCell id="vrZAYbkZ-h7YE_ZRuM2D-85" value="" style="line;strokeWidth=1;fillColor=none;align=left;verticalAlign=middle;spacingTop=-1;spacingLeft=3;spacingRight=3;rotatable=0;labelPosition=right;points=[];portConstraint=eastwest;" parent="vrZAYbkZ-h7YE_ZRuM2D-83" vertex="1">
          <mxGeometry y="52" width="120" height="8" as="geometry" />
        </mxCell>
        <mxCell id="vrZAYbkZ-h7YE_ZRuM2D-86" value="+setGrafico(ImageIcon image)&#xa;+getGrafico():ImageIcon" style="text;strokeColor=none;fillColor=none;align=left;verticalAlign=top;spacingLeft=4;spacingRight=4;overflow=hidden;rotatable=0;points=[[0,0.5],[1,0.5]];portConstraint=eastwest;" parent="vrZAYbkZ-h7YE_ZRuM2D-83" vertex="1">
          <mxGeometry y="60" width="120" height="50" as="geometry" />
        </mxCell>
        <mxCell id="vrZAYbkZ-h7YE_ZRuM2D-87" style="edgeStyle=none;rounded=0;orthogonalLoop=1;jettySize=auto;html=1;startArrow=none;startFill=0;endArrow=none;endFill=0;entryX=0;entryY=0.5;entryDx=0;entryDy=0;exitX=1;exitY=0.5;exitDx=0;exitDy=0;" parent="WIyWlLk6GJQsqaUBKTNV-1" source="vrZAYbkZ-h7YE_ZRuM2D-83" target="vrZAYbkZ-h7YE_ZRuM2D-8" edge="1">
          <mxGeometry relative="1" as="geometry">
            <mxPoint x="-40" y="-17" as="targetPoint" />
            <mxPoint x="230" y="-20" as="sourcePoint" />
          </mxGeometry>
        </mxCell>
        <mxCell id="T6Tp6hZ9WiSjCjkS2Gaq-4" style="edgeStyle=orthogonalEdgeStyle;rounded=0;orthogonalLoop=1;jettySize=auto;html=1;entryX=0.5;entryY=1;entryDx=0;entryDy=0;endArrow=block;endFill=0;startSize=10;endSize=14;" parent="WIyWlLk6GJQsqaUBKTNV-1" source="vrZAYbkZ-h7YE_ZRuM2D-88" target="vrZAYbkZ-h7YE_ZRuM2D-37" edge="1">
          <mxGeometry relative="1" as="geometry">
            <Array as="points">
              <mxPoint x="990" y="466" />
              <mxPoint x="1075" y="466" />
            </Array>
          </mxGeometry>
        </mxCell>
        <mxCell id="vrZAYbkZ-h7YE_ZRuM2D-88" value="Cuarentena" style="swimlane;fontStyle=1;align=center;verticalAlign=top;childLayout=stackLayout;horizontal=1;startSize=26;horizontalStack=0;resizeParent=1;resizeParentMax=0;resizeLast=0;collapsible=1;marginBottom=0;" parent="WIyWlLk6GJQsqaUBKTNV-1" vertex="1" collapsed="1">
          <mxGeometry x="940" y="536" width="100" height="26" as="geometry">
            <mxRectangle x="940" y="570" width="160" height="86" as="alternateBounds" />
          </mxGeometry>
        </mxCell>
        <mxCell id="AaCoDPqQn8ZPXxicRVi0-63" value="+Cuarentena()" style="text;strokeColor=none;fillColor=none;align=left;verticalAlign=top;spacingLeft=4;spacingRight=4;overflow=hidden;rotatable=0;points=[[0,0.5],[1,0.5]];portConstraint=eastwest;" parent="vrZAYbkZ-h7YE_ZRuM2D-88" vertex="1">
          <mxGeometry y="26" width="100" height="26" as="geometry" />
        </mxCell>
        <mxCell id="vrZAYbkZ-h7YE_ZRuM2D-90" value="" style="line;strokeWidth=1;fillColor=none;align=left;verticalAlign=middle;spacingTop=-1;spacingLeft=3;spacingRight=3;rotatable=0;labelPosition=right;points=[];portConstraint=eastwest;" parent="vrZAYbkZ-h7YE_ZRuM2D-88" vertex="1">
          <mxGeometry y="52" width="100" height="8" as="geometry" />
        </mxCell>
        <mxCell id="-q3Nb7MG7wlZvP0WR283-79" value="+detenerNave()" style="text;strokeColor=none;fillColor=none;align=left;verticalAlign=top;spacingLeft=4;spacingRight=4;overflow=hidden;rotatable=0;points=[[0,0.5],[1,0.5]];portConstraint=eastwest;" parent="vrZAYbkZ-h7YE_ZRuM2D-88" vertex="1">
          <mxGeometry y="60" width="100" height="26" as="geometry" />
        </mxCell>
        <mxCell id="T6Tp6hZ9WiSjCjkS2Gaq-5" style="edgeStyle=orthogonalEdgeStyle;rounded=0;orthogonalLoop=1;jettySize=auto;html=1;startSize=10;endArrow=none;endFill=0;endSize=14;" parent="WIyWlLk6GJQsqaUBKTNV-1" source="vrZAYbkZ-h7YE_ZRuM2D-92" edge="1">
          <mxGeometry relative="1" as="geometry">
            <mxPoint x="1050" y="466" as="targetPoint" />
            <Array as="points">
              <mxPoint x="1187" y="466" />
              <mxPoint x="1070" y="466" />
            </Array>
          </mxGeometry>
        </mxCell>
        <mxCell id="vrZAYbkZ-h7YE_ZRuM2D-92" value="SuperArma" style="swimlane;fontStyle=1;align=center;verticalAlign=top;childLayout=stackLayout;horizontal=1;startSize=26;horizontalStack=0;resizeParent=1;resizeParentMax=0;resizeLast=0;collapsible=1;marginBottom=0;" parent="WIyWlLk6GJQsqaUBKTNV-1" vertex="1" collapsed="1">
          <mxGeometry x="1137" y="536" width="100" height="26" as="geometry">
            <mxRectangle x="1137" y="570" width="160" height="86" as="alternateBounds" />
          </mxGeometry>
        </mxCell>
        <mxCell id="AaCoDPqQn8ZPXxicRVi0-65" value="+SuperArma()" style="text;strokeColor=none;fillColor=none;align=left;verticalAlign=top;spacingLeft=4;spacingRight=4;overflow=hidden;rotatable=0;points=[[0,0.5],[1,0.5]];portConstraint=eastwest;" parent="vrZAYbkZ-h7YE_ZRuM2D-92" vertex="1">
          <mxGeometry y="26" width="100" height="26" as="geometry" />
        </mxCell>
        <mxCell id="vrZAYbkZ-h7YE_ZRuM2D-94" value="" style="line;strokeWidth=1;fillColor=none;align=left;verticalAlign=middle;spacingTop=-1;spacingLeft=3;spacingRight=3;rotatable=0;labelPosition=right;points=[];portConstraint=eastwest;" parent="vrZAYbkZ-h7YE_ZRuM2D-92" vertex="1">
          <mxGeometry y="52" width="100" height="8" as="geometry" />
        </mxCell>
        <mxCell id="-q3Nb7MG7wlZvP0WR283-81" value="+duplicarDanio()" style="text;strokeColor=none;fillColor=none;align=left;verticalAlign=top;spacingLeft=4;spacingRight=4;overflow=hidden;rotatable=0;points=[[0,0.5],[1,0.5]];portConstraint=eastwest;" parent="vrZAYbkZ-h7YE_ZRuM2D-92" vertex="1">
          <mxGeometry y="60" width="100" height="26" as="geometry" />
        </mxCell>
        <mxCell id="vrZAYbkZ-h7YE_ZRuM2D-102" style="edgeStyle=none;rounded=0;orthogonalLoop=1;jettySize=auto;html=1;startArrow=none;startFill=0;endArrow=block;endFill=0;endSize=14;entryX=0.5;entryY=1;entryDx=0;entryDy=0;exitX=0.5;exitY=0;exitDx=0;exitDy=0;" parent="WIyWlLk6GJQsqaUBKTNV-1" source="vrZAYbkZ-h7YE_ZRuM2D-96" target="vrZAYbkZ-h7YE_ZRuM2D-41" edge="1">
          <mxGeometry relative="1" as="geometry">
            <mxPoint x="1370" y="416" as="targetPoint" />
            <Array as="points">
              <mxPoint x="1370" y="486" />
              <mxPoint x="1370" y="456" />
            </Array>
            <mxPoint x="1370" y="546" as="sourcePoint" />
          </mxGeometry>
        </mxCell>
        <mxCell id="vrZAYbkZ-h7YE_ZRuM2D-96" value="Pocion" style="swimlane;fontStyle=1;align=center;verticalAlign=top;childLayout=stackLayout;horizontal=1;startSize=26;horizontalStack=0;resizeParent=1;resizeParentMax=0;resizeLast=0;collapsible=1;marginBottom=0;" parent="WIyWlLk6GJQsqaUBKTNV-1" vertex="1" collapsed="1">
          <mxGeometry x="1335" y="540" width="70" height="26" as="geometry">
            <mxRectangle x="1350" y="570" width="160" height="86" as="alternateBounds" />
          </mxGeometry>
        </mxCell>
        <mxCell id="AaCoDPqQn8ZPXxicRVi0-64" value="+Pocion()" style="text;strokeColor=none;fillColor=none;align=left;verticalAlign=top;spacingLeft=4;spacingRight=4;overflow=hidden;rotatable=0;points=[[0,0.5],[1,0.5]];portConstraint=eastwest;" parent="vrZAYbkZ-h7YE_ZRuM2D-96" vertex="1">
          <mxGeometry y="26" width="70" height="26" as="geometry" />
        </mxCell>
        <mxCell id="vrZAYbkZ-h7YE_ZRuM2D-98" value="" style="line;strokeWidth=1;fillColor=none;align=left;verticalAlign=middle;spacingTop=-1;spacingLeft=3;spacingRight=3;rotatable=0;labelPosition=right;points=[];portConstraint=eastwest;" parent="vrZAYbkZ-h7YE_ZRuM2D-96" vertex="1">
          <mxGeometry y="52" width="70" height="8" as="geometry" />
        </mxCell>
        <mxCell id="-q3Nb7MG7wlZvP0WR283-80" value="+curar()" style="text;strokeColor=none;fillColor=none;align=left;verticalAlign=top;spacingLeft=4;spacingRight=4;overflow=hidden;rotatable=0;points=[[0,0.5],[1,0.5]];portConstraint=eastwest;" parent="vrZAYbkZ-h7YE_ZRuM2D-96" vertex="1">
          <mxGeometry y="60" width="70" height="26" as="geometry" />
        </mxCell>
        <mxCell id="vrZAYbkZ-h7YE_ZRuM2D-114" value="1" style="text;html=1;strokeColor=none;fillColor=none;align=center;verticalAlign=middle;whiteSpace=wrap;rounded=0;" parent="WIyWlLk6GJQsqaUBKTNV-1" vertex="1">
          <mxGeometry x="340" y="-90" width="40" height="20" as="geometry" />
        </mxCell>
        <mxCell id="vrZAYbkZ-h7YE_ZRuM2D-115" value="#entidadGrafica" style="text;html=1;strokeColor=none;fillColor=none;align=center;verticalAlign=middle;whiteSpace=wrap;rounded=0;" parent="WIyWlLk6GJQsqaUBKTNV-1" vertex="1">
          <mxGeometry x="100" y="-90" width="40" height="20" as="geometry" />
        </mxCell>
        <mxCell id="vrZAYbkZ-h7YE_ZRuM2D-125" value="&lt;div&gt;#arma&lt;/div&gt;" style="text;html=1;strokeColor=none;fillColor=none;align=center;verticalAlign=middle;whiteSpace=wrap;rounded=0;" parent="WIyWlLk6GJQsqaUBKTNV-1" vertex="1">
          <mxGeometry x="560" y="164" width="40" height="20" as="geometry" />
        </mxCell>
        <mxCell id="vrZAYbkZ-h7YE_ZRuM2D-126" value="1" style="text;html=1;strokeColor=none;fillColor=none;align=center;verticalAlign=middle;whiteSpace=wrap;rounded=0;" parent="WIyWlLk6GJQsqaUBKTNV-1" vertex="1">
          <mxGeometry x="400" y="164" width="40" height="20" as="geometry" />
        </mxCell>
        <mxCell id="-q3Nb7MG7wlZvP0WR283-0" value="Visitor" style="swimlane;fontStyle=3;align=center;verticalAlign=top;childLayout=stackLayout;horizontal=1;startSize=26;horizontalStack=0;resizeParent=1;resizeParentMax=0;resizeLast=0;collapsible=1;marginBottom=0;" parent="WIyWlLk6GJQsqaUBKTNV-1" vertex="1" collapsed="1">
          <mxGeometry x="1291" y="-260" width="70" height="26" as="geometry">
            <mxRectangle x="-60" y="-280" width="160" height="130" as="alternateBounds" />
          </mxGeometry>
        </mxCell>
        <mxCell id="-q3Nb7MG7wlZvP0WR283-8" value="+Visitor(Entidad e)" style="text;strokeColor=none;fillColor=none;align=left;verticalAlign=top;spacingLeft=4;spacingRight=4;overflow=hidden;rotatable=0;points=[[0,0.5],[1,0.5]];portConstraint=eastwest;" parent="-q3Nb7MG7wlZvP0WR283-0" vertex="1">
          <mxGeometry y="26" width="70" height="26" as="geometry" />
        </mxCell>
        <mxCell id="-q3Nb7MG7wlZvP0WR283-2" value="" style="line;strokeWidth=1;fillColor=none;align=left;verticalAlign=middle;spacingTop=-1;spacingLeft=3;spacingRight=3;rotatable=0;labelPosition=right;points=[];portConstraint=eastwest;" parent="-q3Nb7MG7wlZvP0WR283-0" vertex="1">
          <mxGeometry y="52" width="70" height="8" as="geometry" />
        </mxCell>
        <mxCell id="-q3Nb7MG7wlZvP0WR283-3" value="+visit(NaveInfectada nave)&#xa;+visit(NavePersonaje nave)&#xa;+visit(Proyectil disparo)&#xa;+visit(Premio premio)" style="text;strokeColor=none;fillColor=none;align=left;verticalAlign=top;spacingLeft=4;spacingRight=4;overflow=hidden;rotatable=0;points=[[0,0.5],[1,0.5]];portConstraint=eastwest;" parent="-q3Nb7MG7wlZvP0WR283-0" vertex="1">
          <mxGeometry y="60" width="70" height="70" as="geometry" />
        </mxCell>
        <mxCell id="-q3Nb7MG7wlZvP0WR283-5" style="edgeStyle=orthogonalEdgeStyle;rounded=0;orthogonalLoop=1;jettySize=auto;html=1;exitX=0;exitY=0.5;exitDx=0;exitDy=0;endArrow=none;endFill=0;startArrow=open;startFill=0;" parent="WIyWlLk6GJQsqaUBKTNV-1" source="-q3Nb7MG7wlZvP0WR283-0" target="vrZAYbkZ-h7YE_ZRuM2D-8" edge="1">
          <mxGeometry relative="1" as="geometry">
            <Array as="points">
              <mxPoint x="640" y="-247" />
              <mxPoint x="640" y="-67" />
            </Array>
          </mxGeometry>
        </mxCell>
        <mxCell id="-q3Nb7MG7wlZvP0WR283-6" value="1" style="text;html=1;strokeColor=none;fillColor=none;align=center;verticalAlign=middle;whiteSpace=wrap;rounded=0;" parent="WIyWlLk6GJQsqaUBKTNV-1" vertex="1">
          <mxGeometry x="20" y="-90" width="40" height="20" as="geometry" />
        </mxCell>
        <mxCell id="-q3Nb7MG7wlZvP0WR283-7" value="&lt;div&gt;#entidad&lt;/div&gt;" style="text;html=1;strokeColor=none;fillColor=none;align=center;verticalAlign=middle;whiteSpace=wrap;rounded=0;" parent="WIyWlLk6GJQsqaUBKTNV-1" vertex="1">
          <mxGeometry x="280" y="-90" width="40" height="20" as="geometry" />
        </mxCell>
        <mxCell id="T6Tp6hZ9WiSjCjkS2Gaq-105" style="edgeStyle=orthogonalEdgeStyle;rounded=0;orthogonalLoop=1;jettySize=auto;html=1;exitX=0.5;exitY=0;exitDx=0;exitDy=0;entryX=0.5;entryY=1;entryDx=0;entryDy=0;startArrow=none;startFill=0;startSize=14;endArrow=block;endFill=0;endSize=14;dashed=1;" parent="WIyWlLk6GJQsqaUBKTNV-1" source="-q3Nb7MG7wlZvP0WR283-9" target="-q3Nb7MG7wlZvP0WR283-0" edge="1">
          <mxGeometry relative="1" as="geometry" />
        </mxCell>
        <mxCell id="-q3Nb7MG7wlZvP0WR283-9" value="VisitorPremioCuarentena" style="swimlane;fontStyle=1;align=center;verticalAlign=top;childLayout=stackLayout;horizontal=1;startSize=26;horizontalStack=0;resizeParent=1;resizeParentMax=0;resizeLast=0;collapsible=1;marginBottom=0;" parent="WIyWlLk6GJQsqaUBKTNV-1" vertex="1" collapsed="1">
          <mxGeometry x="1081" y="-60" width="160" height="26" as="geometry">
            <mxRectangle x="-270" y="-80" width="160" height="34" as="alternateBounds" />
          </mxGeometry>
        </mxCell>
        <mxCell id="-q3Nb7MG7wlZvP0WR283-11" value="" style="line;strokeWidth=1;fillColor=none;align=left;verticalAlign=middle;spacingTop=-1;spacingLeft=3;spacingRight=3;rotatable=0;labelPosition=right;points=[];portConstraint=eastwest;" parent="-q3Nb7MG7wlZvP0WR283-9" vertex="1">
          <mxGeometry y="26" width="160" height="8" as="geometry" />
        </mxCell>
        <mxCell id="T6Tp6hZ9WiSjCjkS2Gaq-106" style="edgeStyle=orthogonalEdgeStyle;rounded=0;orthogonalLoop=1;jettySize=auto;html=1;exitX=0.5;exitY=0;exitDx=0;exitDy=0;entryX=0.5;entryY=1;entryDx=0;entryDy=0;startArrow=none;startFill=0;startSize=14;endArrow=block;endFill=0;endSize=14;dashed=1;" parent="WIyWlLk6GJQsqaUBKTNV-1" source="-q3Nb7MG7wlZvP0WR283-13" target="-q3Nb7MG7wlZvP0WR283-0" edge="1">
          <mxGeometry relative="1" as="geometry" />
        </mxCell>
        <mxCell id="-q3Nb7MG7wlZvP0WR283-13" value="VistorDisparo" style="swimlane;fontStyle=1;align=center;verticalAlign=top;childLayout=stackLayout;horizontal=1;startSize=26;horizontalStack=0;resizeParent=1;resizeParentMax=0;resizeLast=0;collapsible=1;marginBottom=0;" parent="WIyWlLk6GJQsqaUBKTNV-1" vertex="1" collapsed="1">
          <mxGeometry x="901" y="-60" width="150" height="26" as="geometry">
            <mxRectangle x="-450" y="-80" width="160" height="34" as="alternateBounds" />
          </mxGeometry>
        </mxCell>
        <mxCell id="-q3Nb7MG7wlZvP0WR283-15" value="" style="line;strokeWidth=1;fillColor=none;align=left;verticalAlign=middle;spacingTop=-1;spacingLeft=3;spacingRight=3;rotatable=0;labelPosition=right;points=[];portConstraint=eastwest;" parent="-q3Nb7MG7wlZvP0WR283-13" vertex="1">
          <mxGeometry y="26" width="150" height="8" as="geometry" />
        </mxCell>
        <mxCell id="T6Tp6hZ9WiSjCjkS2Gaq-87" style="edgeStyle=orthogonalEdgeStyle;rounded=0;orthogonalLoop=1;jettySize=auto;html=1;exitX=0.5;exitY=1;exitDx=0;exitDy=0;entryX=0.75;entryY=1;entryDx=0;entryDy=0;startArrow=none;startFill=0;startSize=14;endArrow=open;endFill=0;endSize=14;" parent="WIyWlLk6GJQsqaUBKTNV-1" source="-q3Nb7MG7wlZvP0WR283-17" target="vrZAYbkZ-h7YE_ZRuM2D-12" edge="1">
          <mxGeometry relative="1" as="geometry">
            <Array as="points">
              <mxPoint x="1655" y="590" />
              <mxPoint x="910" y="590" />
            </Array>
          </mxGeometry>
        </mxCell>
        <mxCell id="-q3Nb7MG7wlZvP0WR283-17" value="VisitorNaveJugador" style="swimlane;fontStyle=1;align=center;verticalAlign=top;childLayout=stackLayout;horizontal=1;startSize=26;horizontalStack=0;resizeParent=1;resizeParentMax=0;resizeLast=0;collapsible=1;marginBottom=0;" parent="WIyWlLk6GJQsqaUBKTNV-1" vertex="1" collapsed="1">
          <mxGeometry x="1590" y="-60" width="130" height="26" as="geometry">
            <mxRectangle x="120" y="-80" width="160" height="34" as="alternateBounds" />
          </mxGeometry>
        </mxCell>
        <mxCell id="-q3Nb7MG7wlZvP0WR283-19" value="" style="line;strokeWidth=1;fillColor=none;align=left;verticalAlign=middle;spacingTop=-1;spacingLeft=3;spacingRight=3;rotatable=0;labelPosition=right;points=[];portConstraint=eastwest;" parent="-q3Nb7MG7wlZvP0WR283-17" vertex="1">
          <mxGeometry y="26" width="130" height="8" as="geometry" />
        </mxCell>
        <mxCell id="T6Tp6hZ9WiSjCjkS2Gaq-104" style="edgeStyle=orthogonalEdgeStyle;rounded=0;orthogonalLoop=1;jettySize=auto;html=1;exitX=0.5;exitY=0;exitDx=0;exitDy=0;entryX=0.5;entryY=1;entryDx=0;entryDy=0;startArrow=none;startFill=0;startSize=14;endArrow=block;endFill=0;endSize=14;dashed=1;" parent="WIyWlLk6GJQsqaUBKTNV-1" source="-q3Nb7MG7wlZvP0WR283-21" target="-q3Nb7MG7wlZvP0WR283-0" edge="1">
          <mxGeometry relative="1" as="geometry" />
        </mxCell>
        <mxCell id="-q3Nb7MG7wlZvP0WR283-21" value="VisirorRemover" style="swimlane;fontStyle=1;align=center;verticalAlign=top;childLayout=stackLayout;horizontal=1;startSize=26;horizontalStack=0;resizeParent=1;resizeParentMax=0;resizeLast=0;collapsible=1;marginBottom=0;" parent="WIyWlLk6GJQsqaUBKTNV-1" vertex="1" collapsed="1">
          <mxGeometry x="1271" y="-60" width="120" height="26" as="geometry">
            <mxRectangle x="-80" y="-80" width="160" height="34" as="alternateBounds" />
          </mxGeometry>
        </mxCell>
        <mxCell id="-q3Nb7MG7wlZvP0WR283-23" value="" style="line;strokeWidth=1;fillColor=none;align=left;verticalAlign=middle;spacingTop=-1;spacingLeft=3;spacingRight=3;rotatable=0;labelPosition=right;points=[];portConstraint=eastwest;" parent="-q3Nb7MG7wlZvP0WR283-21" vertex="1">
          <mxGeometry y="26" width="120" height="8" as="geometry" />
        </mxCell>
        <mxCell id="T6Tp6hZ9WiSjCjkS2Gaq-135" style="edgeStyle=orthogonalEdgeStyle;rounded=0;orthogonalLoop=1;jettySize=auto;html=1;exitX=0.5;exitY=0;exitDx=0;exitDy=0;entryX=0.5;entryY=1;entryDx=0;entryDy=0;startArrow=none;startFill=0;startSize=14;endArrow=block;endFill=0;endSize=14;" parent="WIyWlLk6GJQsqaUBKTNV-1" source="-q3Nb7MG7wlZvP0WR283-37" target="vrZAYbkZ-h7YE_ZRuM2D-73" edge="1">
          <mxGeometry relative="1" as="geometry" />
        </mxCell>
        <mxCell id="-q3Nb7MG7wlZvP0WR283-37" value="Nivel_1" style="swimlane;fontStyle=1;align=center;verticalAlign=top;childLayout=stackLayout;horizontal=1;startSize=26;horizontalStack=0;resizeParent=1;resizeParentMax=0;resizeLast=0;collapsible=1;marginBottom=0;" parent="WIyWlLk6GJQsqaUBKTNV-1" vertex="1" collapsed="1">
          <mxGeometry x="-1050" y="518" width="70" height="26" as="geometry">
            <mxRectangle x="-1140" y="514" width="160" height="60" as="alternateBounds" />
          </mxGeometry>
        </mxCell>
        <mxCell id="-q3Nb7MG7wlZvP0WR283-38" value="+Nivel_1(int cant)" style="text;strokeColor=none;fillColor=none;align=left;verticalAlign=top;spacingLeft=4;spacingRight=4;overflow=hidden;rotatable=0;points=[[0,0.5],[1,0.5]];portConstraint=eastwest;" parent="-q3Nb7MG7wlZvP0WR283-37" vertex="1">
          <mxGeometry y="26" width="70" height="26" as="geometry" />
        </mxCell>
        <mxCell id="-q3Nb7MG7wlZvP0WR283-39" value="" style="line;strokeWidth=1;fillColor=none;align=left;verticalAlign=middle;spacingTop=-1;spacingLeft=3;spacingRight=3;rotatable=0;labelPosition=right;points=[];portConstraint=eastwest;" parent="-q3Nb7MG7wlZvP0WR283-37" vertex="1">
          <mxGeometry y="52" width="70" height="8" as="geometry" />
        </mxCell>
        <mxCell id="T6Tp6hZ9WiSjCjkS2Gaq-133" style="edgeStyle=orthogonalEdgeStyle;rounded=0;orthogonalLoop=1;jettySize=auto;html=1;exitX=0.5;exitY=0;exitDx=0;exitDy=0;entryX=0.5;entryY=1;entryDx=0;entryDy=0;startArrow=none;startFill=0;startSize=14;endArrow=block;endFill=0;endSize=14;" parent="WIyWlLk6GJQsqaUBKTNV-1" source="-q3Nb7MG7wlZvP0WR283-41" target="vrZAYbkZ-h7YE_ZRuM2D-73" edge="1">
          <mxGeometry relative="1" as="geometry" />
        </mxCell>
        <mxCell id="-q3Nb7MG7wlZvP0WR283-41" value="Nivel_2" style="swimlane;fontStyle=1;align=center;verticalAlign=top;childLayout=stackLayout;horizontal=1;startSize=26;horizontalStack=0;resizeParent=1;resizeParentMax=0;resizeLast=0;collapsible=1;marginBottom=0;" parent="WIyWlLk6GJQsqaUBKTNV-1" vertex="1" collapsed="1">
          <mxGeometry x="-935" y="518" width="70" height="26" as="geometry">
            <mxRectangle x="-935" y="518" width="160" height="60" as="alternateBounds" />
          </mxGeometry>
        </mxCell>
        <mxCell id="-q3Nb7MG7wlZvP0WR283-42" value="+Nivel_2(int cant)" style="text;strokeColor=none;fillColor=none;align=left;verticalAlign=top;spacingLeft=4;spacingRight=4;overflow=hidden;rotatable=0;points=[[0,0.5],[1,0.5]];portConstraint=eastwest;" parent="-q3Nb7MG7wlZvP0WR283-41" vertex="1">
          <mxGeometry y="26" width="70" height="26" as="geometry" />
        </mxCell>
        <mxCell id="-q3Nb7MG7wlZvP0WR283-43" value="" style="line;strokeWidth=1;fillColor=none;align=left;verticalAlign=middle;spacingTop=-1;spacingLeft=3;spacingRight=3;rotatable=0;labelPosition=right;points=[];portConstraint=eastwest;" parent="-q3Nb7MG7wlZvP0WR283-41" vertex="1">
          <mxGeometry y="52" width="70" height="8" as="geometry" />
        </mxCell>
        <mxCell id="-q3Nb7MG7wlZvP0WR283-83" value="FabricaNaveInfectada" style="swimlane;fontStyle=3;align=center;verticalAlign=top;childLayout=stackLayout;horizontal=1;startSize=26;horizontalStack=0;resizeParent=1;resizeParentMax=0;resizeLast=0;collapsible=1;marginBottom=0;" parent="WIyWlLk6GJQsqaUBKTNV-1" vertex="1" collapsed="1">
          <mxGeometry x="-620" y="314" width="160" height="26" as="geometry">
            <mxRectangle x="-570" y="364" width="160" height="60" as="alternateBounds" />
          </mxGeometry>
        </mxCell>
        <mxCell id="-q3Nb7MG7wlZvP0WR283-85" value="" style="line;strokeWidth=1;fillColor=none;align=left;verticalAlign=middle;spacingTop=-1;spacingLeft=3;spacingRight=3;rotatable=0;labelPosition=right;points=[];portConstraint=eastwest;" parent="-q3Nb7MG7wlZvP0WR283-83" vertex="1">
          <mxGeometry y="26" width="160" height="8" as="geometry" />
        </mxCell>
        <mxCell id="-q3Nb7MG7wlZvP0WR283-86" value="+crearNaveInfectada()" style="text;strokeColor=none;fillColor=none;align=left;verticalAlign=top;spacingLeft=4;spacingRight=4;overflow=hidden;rotatable=0;points=[[0,0.5],[1,0.5]];portConstraint=eastwest;" parent="-q3Nb7MG7wlZvP0WR283-83" vertex="1">
          <mxGeometry y="34" width="160" height="26" as="geometry" />
        </mxCell>
        <mxCell id="-q3Nb7MG7wlZvP0WR283-105" style="edgeStyle=orthogonalEdgeStyle;rounded=0;orthogonalLoop=1;jettySize=auto;html=1;exitX=0.5;exitY=0;exitDx=0;exitDy=0;entryX=0.5;entryY=1;entryDx=0;entryDy=0;startArrow=none;startFill=0;startSize=24;endArrow=block;endFill=0;endSize=14;" parent="WIyWlLk6GJQsqaUBKTNV-1" source="-q3Nb7MG7wlZvP0WR283-97" target="-q3Nb7MG7wlZvP0WR283-83" edge="1">
          <mxGeometry relative="1" as="geometry">
            <Array as="points">
              <mxPoint x="-695" y="450" />
              <mxPoint x="-540" y="450" />
            </Array>
          </mxGeometry>
        </mxCell>
        <mxCell id="-q3Nb7MG7wlZvP0WR283-97" value="FabricaNaveAlpha" style="swimlane;fontStyle=1;align=center;verticalAlign=top;childLayout=stackLayout;horizontal=1;startSize=26;horizontalStack=0;resizeParent=1;resizeParentMax=0;resizeLast=0;collapsible=1;marginBottom=0;" parent="WIyWlLk6GJQsqaUBKTNV-1" vertex="1" collapsed="1">
          <mxGeometry x="-760" y="479.01" width="130" height="26" as="geometry">
            <mxRectangle x="-680" y="479.01" width="180" height="60" as="alternateBounds" />
          </mxGeometry>
        </mxCell>
        <mxCell id="-q3Nb7MG7wlZvP0WR283-99" value="" style="line;strokeWidth=1;fillColor=none;align=left;verticalAlign=middle;spacingTop=-1;spacingLeft=3;spacingRight=3;rotatable=0;labelPosition=right;points=[];portConstraint=eastwest;" parent="-q3Nb7MG7wlZvP0WR283-97" vertex="1">
          <mxGeometry y="26" width="130" height="8" as="geometry" />
        </mxCell>
        <mxCell id="-q3Nb7MG7wlZvP0WR283-100" value="+ crearNaveInfectada():Alpha" style="text;strokeColor=none;fillColor=none;align=left;verticalAlign=top;spacingLeft=4;spacingRight=4;overflow=hidden;rotatable=0;points=[[0,0.5],[1,0.5]];portConstraint=eastwest;" parent="-q3Nb7MG7wlZvP0WR283-97" vertex="1">
          <mxGeometry y="34" width="130" height="26" as="geometry" />
        </mxCell>
        <mxCell id="T6Tp6hZ9WiSjCjkS2Gaq-143" style="edgeStyle=orthogonalEdgeStyle;rounded=0;orthogonalLoop=1;jettySize=auto;html=1;exitX=0.5;exitY=0;exitDx=0;exitDy=0;entryX=0.5;entryY=1;entryDx=0;entryDy=0;startArrow=none;startFill=0;startSize=14;endArrow=block;endFill=0;endSize=14;" parent="WIyWlLk6GJQsqaUBKTNV-1" source="-q3Nb7MG7wlZvP0WR283-101" target="-q3Nb7MG7wlZvP0WR283-83" edge="1">
          <mxGeometry relative="1" as="geometry">
            <Array as="points">
              <mxPoint x="-540" y="360" />
            </Array>
          </mxGeometry>
        </mxCell>
        <mxCell id="-q3Nb7MG7wlZvP0WR283-101" value="FabricaNaveBeta" style="swimlane;fontStyle=1;align=center;verticalAlign=top;childLayout=stackLayout;horizontal=1;startSize=26;horizontalStack=0;resizeParent=1;resizeParentMax=0;resizeLast=0;collapsible=1;marginBottom=0;" parent="WIyWlLk6GJQsqaUBKTNV-1" vertex="1" collapsed="1">
          <mxGeometry x="-600" y="479.01" width="120" height="26" as="geometry">
            <mxRectangle x="-480" y="479.01" width="160" height="60" as="alternateBounds" />
          </mxGeometry>
        </mxCell>
        <mxCell id="-q3Nb7MG7wlZvP0WR283-103" value="" style="line;strokeWidth=1;fillColor=none;align=left;verticalAlign=middle;spacingTop=-1;spacingLeft=3;spacingRight=3;rotatable=0;labelPosition=right;points=[];portConstraint=eastwest;" parent="-q3Nb7MG7wlZvP0WR283-101" vertex="1">
          <mxGeometry y="26" width="120" height="8" as="geometry" />
        </mxCell>
        <mxCell id="-q3Nb7MG7wlZvP0WR283-104" value="+ crearNaveInfectada():Beta" style="text;strokeColor=none;fillColor=none;align=left;verticalAlign=top;spacingLeft=4;spacingRight=4;overflow=hidden;rotatable=0;points=[[0,0.5],[1,0.5]];portConstraint=eastwest;" parent="-q3Nb7MG7wlZvP0WR283-101" vertex="1">
          <mxGeometry y="34" width="120" height="26" as="geometry" />
        </mxCell>
        <mxCell id="AaCoDPqQn8ZPXxicRVi0-7" value="FabricaPremio" style="swimlane;fontStyle=3;align=center;verticalAlign=top;childLayout=stackLayout;horizontal=1;startSize=26;horizontalStack=0;resizeParent=1;resizeParentMax=0;resizeLast=0;collapsible=1;marginBottom=0;" parent="WIyWlLk6GJQsqaUBKTNV-1" vertex="1" collapsed="1">
          <mxGeometry x="-500" y="51.99000000000001" width="120" height="26" as="geometry">
            <mxRectangle x="-500" y="51.99000000000001" width="160" height="64" as="alternateBounds" />
          </mxGeometry>
        </mxCell>
        <mxCell id="AaCoDPqQn8ZPXxicRVi0-8" value="" style="line;strokeWidth=1;fillColor=none;align=left;verticalAlign=middle;spacingTop=-1;spacingLeft=3;spacingRight=3;rotatable=0;labelPosition=right;points=[];portConstraint=eastwest;" parent="AaCoDPqQn8ZPXxicRVi0-7" vertex="1">
          <mxGeometry y="26" width="120" height="8" as="geometry" />
        </mxCell>
        <mxCell id="AaCoDPqQn8ZPXxicRVi0-9" value="+crearPremio():Premio" style="text;strokeColor=none;fillColor=none;align=left;verticalAlign=top;spacingLeft=4;spacingRight=4;overflow=hidden;rotatable=0;points=[[0,0.5],[1,0.5]];portConstraint=eastwest;" parent="AaCoDPqQn8ZPXxicRVi0-7" vertex="1">
          <mxGeometry y="34" width="120" height="30" as="geometry" />
        </mxCell>
        <mxCell id="T6Tp6hZ9WiSjCjkS2Gaq-149" style="edgeStyle=orthogonalEdgeStyle;rounded=0;orthogonalLoop=1;jettySize=auto;html=1;exitX=0.5;exitY=0;exitDx=0;exitDy=0;entryX=0.5;entryY=1;entryDx=0;entryDy=0;startArrow=none;startFill=0;startSize=14;endArrow=block;endFill=0;endSize=14;" parent="WIyWlLk6GJQsqaUBKTNV-1" source="AaCoDPqQn8ZPXxicRVi0-11" target="AaCoDPqQn8ZPXxicRVi0-7" edge="1">
          <mxGeometry relative="1" as="geometry" />
        </mxCell>
        <mxCell id="AaCoDPqQn8ZPXxicRVi0-11" value="FabricaCuarentena" style="swimlane;fontStyle=1;align=center;verticalAlign=top;childLayout=stackLayout;horizontal=1;startSize=26;horizontalStack=0;resizeParent=1;resizeParentMax=0;resizeLast=0;collapsible=1;marginBottom=0;" parent="WIyWlLk6GJQsqaUBKTNV-1" vertex="1" collapsed="1">
          <mxGeometry x="-610" y="167" width="140" height="26" as="geometry">
            <mxRectangle x="-610" y="167" width="180" height="60" as="alternateBounds" />
          </mxGeometry>
        </mxCell>
        <mxCell id="AaCoDPqQn8ZPXxicRVi0-12" value="" style="line;strokeWidth=1;fillColor=none;align=left;verticalAlign=middle;spacingTop=-1;spacingLeft=3;spacingRight=3;rotatable=0;labelPosition=right;points=[];portConstraint=eastwest;" parent="AaCoDPqQn8ZPXxicRVi0-11" vertex="1">
          <mxGeometry y="26" width="140" height="8" as="geometry" />
        </mxCell>
        <mxCell id="AaCoDPqQn8ZPXxicRVi0-13" value="+ crearPremio():Cuatrentena" style="text;strokeColor=none;fillColor=none;align=left;verticalAlign=top;spacingLeft=4;spacingRight=4;overflow=hidden;rotatable=0;points=[[0,0.5],[1,0.5]];portConstraint=eastwest;" parent="AaCoDPqQn8ZPXxicRVi0-11" vertex="1">
          <mxGeometry y="34" width="140" height="26" as="geometry" />
        </mxCell>
        <mxCell id="T6Tp6hZ9WiSjCjkS2Gaq-148" style="edgeStyle=orthogonalEdgeStyle;rounded=0;orthogonalLoop=1;jettySize=auto;html=1;exitX=0.5;exitY=0;exitDx=0;exitDy=0;entryX=0.5;entryY=1;entryDx=0;entryDy=0;startArrow=none;startFill=0;startSize=14;endArrow=block;endFill=0;endSize=14;" parent="WIyWlLk6GJQsqaUBKTNV-1" source="AaCoDPqQn8ZPXxicRVi0-15" target="AaCoDPqQn8ZPXxicRVi0-7" edge="1">
          <mxGeometry relative="1" as="geometry" />
        </mxCell>
        <mxCell id="AaCoDPqQn8ZPXxicRVi0-15" value="FabricaSuperArma" style="swimlane;fontStyle=1;align=center;verticalAlign=top;childLayout=stackLayout;horizontal=1;startSize=26;horizontalStack=0;resizeParent=1;resizeParentMax=0;resizeLast=0;collapsible=1;marginBottom=0;" parent="WIyWlLk6GJQsqaUBKTNV-1" vertex="1" collapsed="1">
          <mxGeometry x="-400" y="166" width="140" height="26" as="geometry">
            <mxRectangle x="-400" y="166" width="160" height="60" as="alternateBounds" />
          </mxGeometry>
        </mxCell>
        <mxCell id="AaCoDPqQn8ZPXxicRVi0-16" value="" style="line;strokeWidth=1;fillColor=none;align=left;verticalAlign=middle;spacingTop=-1;spacingLeft=3;spacingRight=3;rotatable=0;labelPosition=right;points=[];portConstraint=eastwest;" parent="AaCoDPqQn8ZPXxicRVi0-15" vertex="1">
          <mxGeometry y="26" width="140" height="8" as="geometry" />
        </mxCell>
        <mxCell id="AaCoDPqQn8ZPXxicRVi0-17" value="+ crearPremio():SuperArma" style="text;strokeColor=none;fillColor=none;align=left;verticalAlign=top;spacingLeft=4;spacingRight=4;overflow=hidden;rotatable=0;points=[[0,0.5],[1,0.5]];portConstraint=eastwest;" parent="AaCoDPqQn8ZPXxicRVi0-15" vertex="1">
          <mxGeometry y="34" width="140" height="26" as="geometry" />
        </mxCell>
        <mxCell id="T6Tp6hZ9WiSjCjkS2Gaq-147" style="edgeStyle=orthogonalEdgeStyle;rounded=0;orthogonalLoop=1;jettySize=auto;html=1;exitX=0.5;exitY=0;exitDx=0;exitDy=0;entryX=0.5;entryY=1;entryDx=0;entryDy=0;startArrow=none;startFill=0;startSize=14;endArrow=block;endFill=0;endSize=14;" parent="WIyWlLk6GJQsqaUBKTNV-1" source="AaCoDPqQn8ZPXxicRVi0-18" target="AaCoDPqQn8ZPXxicRVi0-7" edge="1">
          <mxGeometry relative="1" as="geometry" />
        </mxCell>
        <mxCell id="AaCoDPqQn8ZPXxicRVi0-18" value="FabricaPocion" style="swimlane;fontStyle=1;align=center;verticalAlign=top;childLayout=stackLayout;horizontal=1;startSize=26;horizontalStack=0;resizeParent=1;resizeParentMax=0;resizeLast=0;collapsible=1;marginBottom=0;" parent="WIyWlLk6GJQsqaUBKTNV-1" vertex="1" collapsed="1">
          <mxGeometry x="-790" y="167" width="110" height="26" as="geometry">
            <mxRectangle x="-790" y="167" width="160" height="60" as="alternateBounds" />
          </mxGeometry>
        </mxCell>
        <mxCell id="AaCoDPqQn8ZPXxicRVi0-20" value="" style="line;strokeWidth=1;fillColor=none;align=left;verticalAlign=middle;spacingTop=-1;spacingLeft=3;spacingRight=3;rotatable=0;labelPosition=right;points=[];portConstraint=eastwest;" parent="AaCoDPqQn8ZPXxicRVi0-18" vertex="1">
          <mxGeometry y="26" width="110" height="8" as="geometry" />
        </mxCell>
        <mxCell id="AaCoDPqQn8ZPXxicRVi0-21" value="+crearPremio():Pocion" style="text;strokeColor=none;fillColor=none;align=left;verticalAlign=top;spacingLeft=4;spacingRight=4;overflow=hidden;rotatable=0;points=[[0,0.5],[1,0.5]];portConstraint=eastwest;" parent="AaCoDPqQn8ZPXxicRVi0-18" vertex="1">
          <mxGeometry y="34" width="110" height="26" as="geometry" />
        </mxCell>
        <mxCell id="AaCoDPqQn8ZPXxicRVi0-34" value="Movimiento" style="swimlane;fontStyle=3;align=center;verticalAlign=top;childLayout=stackLayout;horizontal=1;startSize=26;horizontalStack=0;resizeParent=1;resizeParentMax=0;resizeLast=0;collapsible=1;marginBottom=0;" parent="WIyWlLk6GJQsqaUBKTNV-1" vertex="1" collapsed="1">
          <mxGeometry x="685" y="-690" width="100" height="26" as="geometry">
            <mxRectangle x="850" y="-546" width="160" height="130" as="alternateBounds" />
          </mxGeometry>
        </mxCell>
        <mxCell id="AaCoDPqQn8ZPXxicRVi0-35" value="#posX:int&#xa;#posY:int" style="text;strokeColor=none;fillColor=none;align=left;verticalAlign=top;spacingLeft=4;spacingRight=4;overflow=hidden;rotatable=0;points=[[0,0.5],[1,0.5]];portConstraint=eastwest;" parent="AaCoDPqQn8ZPXxicRVi0-34" vertex="1">
          <mxGeometry y="26" width="100" height="32" as="geometry" />
        </mxCell>
        <mxCell id="AaCoDPqQn8ZPXxicRVi0-36" value="" style="line;strokeWidth=1;fillColor=none;align=left;verticalAlign=middle;spacingTop=-1;spacingLeft=3;spacingRight=3;rotatable=0;labelPosition=right;points=[];portConstraint=eastwest;" parent="AaCoDPqQn8ZPXxicRVi0-34" vertex="1">
          <mxGeometry y="58" width="100" height="8" as="geometry" />
        </mxCell>
        <mxCell id="AaCoDPqQn8ZPXxicRVi0-37" value="+ getDirecion():Pair&lt;int,int&gt;&#xa;+setDirecion(Pair&lt;int,int&gt; d)&#xa;+mover()" style="text;strokeColor=none;fillColor=none;align=left;verticalAlign=top;spacingLeft=4;spacingRight=4;overflow=hidden;rotatable=0;points=[[0,0.5],[1,0.5]];portConstraint=eastwest;" parent="AaCoDPqQn8ZPXxicRVi0-34" vertex="1">
          <mxGeometry y="66" width="100" height="64" as="geometry" />
        </mxCell>
        <mxCell id="T6Tp6hZ9WiSjCjkS2Gaq-126" style="edgeStyle=orthogonalEdgeStyle;rounded=0;orthogonalLoop=1;jettySize=auto;html=1;exitX=0.5;exitY=0;exitDx=0;exitDy=0;entryX=0.5;entryY=1;entryDx=0;entryDy=0;startArrow=none;startFill=0;startSize=14;endArrow=block;endFill=0;endSize=14;" parent="WIyWlLk6GJQsqaUBKTNV-1" source="AaCoDPqQn8ZPXxicRVi0-38" target="AaCoDPqQn8ZPXxicRVi0-34" edge="1">
          <mxGeometry relative="1" as="geometry" />
        </mxCell>
        <mxCell id="AaCoDPqQn8ZPXxicRVi0-38" value="MovimientoVertical" style="swimlane;fontStyle=1;align=center;verticalAlign=top;childLayout=stackLayout;horizontal=1;startSize=26;horizontalStack=0;resizeParent=1;resizeParentMax=0;resizeLast=0;collapsible=1;marginBottom=0;" parent="WIyWlLk6GJQsqaUBKTNV-1" vertex="1" collapsed="1">
          <mxGeometry x="740" y="-514" width="140" height="26" as="geometry">
            <mxRectangle x="650" y="-322" width="260" height="86" as="alternateBounds" />
          </mxGeometry>
        </mxCell>
        <mxCell id="AaCoDPqQn8ZPXxicRVi0-39" value="+MovimientoVertical(Entidad e,Pair&lt;int,int&gt; d)" style="text;strokeColor=none;fillColor=none;align=left;verticalAlign=top;spacingLeft=4;spacingRight=4;overflow=hidden;rotatable=0;points=[[0,0.5],[1,0.5]];portConstraint=eastwest;" parent="AaCoDPqQn8ZPXxicRVi0-38" vertex="1">
          <mxGeometry y="26" width="140" height="26" as="geometry" />
        </mxCell>
        <mxCell id="AaCoDPqQn8ZPXxicRVi0-40" value="" style="line;strokeWidth=1;fillColor=none;align=left;verticalAlign=middle;spacingTop=-1;spacingLeft=3;spacingRight=3;rotatable=0;labelPosition=right;points=[];portConstraint=eastwest;" parent="AaCoDPqQn8ZPXxicRVi0-38" vertex="1">
          <mxGeometry y="52" width="140" height="8" as="geometry" />
        </mxCell>
        <mxCell id="AaCoDPqQn8ZPXxicRVi0-41" value="+ mover()++" style="text;strokeColor=none;fillColor=none;align=left;verticalAlign=top;spacingLeft=4;spacingRight=4;overflow=hidden;rotatable=0;points=[[0,0.5],[1,0.5]];portConstraint=eastwest;" parent="AaCoDPqQn8ZPXxicRVi0-38" vertex="1">
          <mxGeometry y="60" width="140" height="26" as="geometry" />
        </mxCell>
        <mxCell id="T6Tp6hZ9WiSjCjkS2Gaq-125" style="edgeStyle=orthogonalEdgeStyle;rounded=0;orthogonalLoop=1;jettySize=auto;html=1;exitX=0.5;exitY=0;exitDx=0;exitDy=0;entryX=0.5;entryY=1;entryDx=0;entryDy=0;startArrow=none;startFill=0;startSize=14;endArrow=block;endFill=0;endSize=14;" parent="WIyWlLk6GJQsqaUBKTNV-1" source="AaCoDPqQn8ZPXxicRVi0-42" target="AaCoDPqQn8ZPXxicRVi0-34" edge="1">
          <mxGeometry relative="1" as="geometry" />
        </mxCell>
        <mxCell id="AaCoDPqQn8ZPXxicRVi0-42" value="MovimientoHorizontal" style="swimlane;fontStyle=1;align=center;verticalAlign=top;childLayout=stackLayout;horizontal=1;startSize=26;horizontalStack=0;resizeParent=1;resizeParentMax=0;resizeLast=0;collapsible=1;marginBottom=0;" parent="WIyWlLk6GJQsqaUBKTNV-1" vertex="1" collapsed="1">
          <mxGeometry x="490" y="-514" width="150" height="26" as="geometry">
            <mxRectangle x="940" y="-322" width="290" height="86" as="alternateBounds" />
          </mxGeometry>
        </mxCell>
        <mxCell id="AaCoDPqQn8ZPXxicRVi0-43" value="+MovimientoHorizontal(Entidad e,Pair&lt;int,int&gt; d)" style="text;strokeColor=none;fillColor=none;align=left;verticalAlign=top;spacingLeft=4;spacingRight=4;overflow=hidden;rotatable=0;points=[[0,0.5],[1,0.5]];portConstraint=eastwest;" parent="AaCoDPqQn8ZPXxicRVi0-42" vertex="1">
          <mxGeometry y="26" width="150" height="26" as="geometry" />
        </mxCell>
        <mxCell id="AaCoDPqQn8ZPXxicRVi0-44" value="" style="line;strokeWidth=1;fillColor=none;align=left;verticalAlign=middle;spacingTop=-1;spacingLeft=3;spacingRight=3;rotatable=0;labelPosition=right;points=[];portConstraint=eastwest;" parent="AaCoDPqQn8ZPXxicRVi0-42" vertex="1">
          <mxGeometry y="52" width="150" height="8" as="geometry" />
        </mxCell>
        <mxCell id="AaCoDPqQn8ZPXxicRVi0-45" value="+mover()++" style="text;strokeColor=none;fillColor=none;align=left;verticalAlign=top;spacingLeft=4;spacingRight=4;overflow=hidden;rotatable=0;points=[[0,0.5],[1,0.5]];portConstraint=eastwest;" parent="AaCoDPqQn8ZPXxicRVi0-42" vertex="1">
          <mxGeometry y="60" width="150" height="26" as="geometry" />
        </mxCell>
        <mxCell id="AaCoDPqQn8ZPXxicRVi0-53" style="edgeStyle=orthogonalEdgeStyle;rounded=0;orthogonalLoop=1;jettySize=auto;html=1;exitX=0.5;exitY=0;exitDx=0;exitDy=0;entryX=0.5;entryY=1;entryDx=0;entryDy=0;startArrow=none;startFill=0;startSize=24;endArrow=block;endFill=0;endSize=14;" parent="WIyWlLk6GJQsqaUBKTNV-1" source="AaCoDPqQn8ZPXxicRVi0-46" target="AaCoDPqQn8ZPXxicRVi0-38" edge="1">
          <mxGeometry relative="1" as="geometry" />
        </mxCell>
        <mxCell id="AaCoDPqQn8ZPXxicRVi0-46" value="MovimientoVerticalAcelerado" style="swimlane;fontStyle=1;align=center;verticalAlign=top;childLayout=stackLayout;horizontal=1;startSize=26;horizontalStack=0;resizeParent=1;resizeParentMax=0;resizeLast=0;collapsible=1;marginBottom=0;" parent="WIyWlLk6GJQsqaUBKTNV-1" vertex="1" collapsed="1">
          <mxGeometry x="590" y="-380" width="200" height="26" as="geometry">
            <mxRectangle x="660" y="-196" width="310" height="86" as="alternateBounds" />
          </mxGeometry>
        </mxCell>
        <mxCell id="AaCoDPqQn8ZPXxicRVi0-47" value="+MovimientoVerticalAcelerado(Entidad e,Pair&lt;int,int&gt; d)" style="text;strokeColor=none;fillColor=none;align=left;verticalAlign=top;spacingLeft=4;spacingRight=4;overflow=hidden;rotatable=0;points=[[0,0.5],[1,0.5]];portConstraint=eastwest;" parent="AaCoDPqQn8ZPXxicRVi0-46" vertex="1">
          <mxGeometry y="26" width="200" height="26" as="geometry" />
        </mxCell>
        <mxCell id="AaCoDPqQn8ZPXxicRVi0-48" value="" style="line;strokeWidth=1;fillColor=none;align=left;verticalAlign=middle;spacingTop=-1;spacingLeft=3;spacingRight=3;rotatable=0;labelPosition=right;points=[];portConstraint=eastwest;" parent="AaCoDPqQn8ZPXxicRVi0-46" vertex="1">
          <mxGeometry y="52" width="200" height="8" as="geometry" />
        </mxCell>
        <mxCell id="AaCoDPqQn8ZPXxicRVi0-49" value="+mover()++" style="text;strokeColor=none;fillColor=none;align=left;verticalAlign=top;spacingLeft=4;spacingRight=4;overflow=hidden;rotatable=0;points=[[0,0.5],[1,0.5]];portConstraint=eastwest;" parent="AaCoDPqQn8ZPXxicRVi0-46" vertex="1">
          <mxGeometry y="60" width="200" height="26" as="geometry" />
        </mxCell>
        <mxCell id="AaCoDPqQn8ZPXxicRVi0-56" style="edgeStyle=orthogonalEdgeStyle;rounded=0;orthogonalLoop=1;jettySize=auto;html=1;exitX=0;exitY=0.5;exitDx=0;exitDy=0;entryX=0.75;entryY=0;entryDx=0;entryDy=0;startArrow=none;startFill=0;startSize=6;endArrow=none;endFill=0;endSize=14;" parent="WIyWlLk6GJQsqaUBKTNV-1" source="AaCoDPqQn8ZPXxicRVi0-35" target="vrZAYbkZ-h7YE_ZRuM2D-8" edge="1">
          <mxGeometry relative="1" as="geometry" />
        </mxCell>
        <mxCell id="AaCoDPqQn8ZPXxicRVi0-57" value="1" style="text;html=1;strokeColor=none;fillColor=none;align=center;verticalAlign=middle;whiteSpace=wrap;rounded=0;" parent="WIyWlLk6GJQsqaUBKTNV-1" vertex="1">
          <mxGeometry x="645" y="-700" width="40" height="20" as="geometry" />
        </mxCell>
        <mxCell id="AaCoDPqQn8ZPXxicRVi0-58" value="#mov" style="text;html=1;strokeColor=none;fillColor=none;align=center;verticalAlign=middle;whiteSpace=wrap;rounded=0;" parent="WIyWlLk6GJQsqaUBKTNV-1" vertex="1">
          <mxGeometry x="579.75" y="-700" width="40" height="20" as="geometry" />
        </mxCell>
        <mxCell id="AaCoDPqQn8ZPXxicRVi0-61" value="1" style="text;html=1;strokeColor=none;fillColor=none;align=center;verticalAlign=middle;whiteSpace=wrap;rounded=0;" parent="WIyWlLk6GJQsqaUBKTNV-1" vertex="1">
          <mxGeometry x="1241" y="-240" width="40" height="20" as="geometry" />
        </mxCell>
        <mxCell id="AaCoDPqQn8ZPXxicRVi0-62" value="#visitor" style="text;html=1;strokeColor=none;fillColor=none;align=center;verticalAlign=middle;whiteSpace=wrap;rounded=0;" parent="WIyWlLk6GJQsqaUBKTNV-1" vertex="1">
          <mxGeometry x="1175" y="-240" width="40" height="20" as="geometry" />
        </mxCell>
        <mxCell id="T6Tp6hZ9WiSjCjkS2Gaq-6" style="edgeStyle=orthogonalEdgeStyle;rounded=0;orthogonalLoop=1;jettySize=auto;html=1;exitX=0;exitY=0.25;exitDx=0;exitDy=0;entryX=0;entryY=0;entryDx=0;entryDy=0;startSize=10;endArrow=none;endFill=0;endSize=14;" parent="WIyWlLk6GJQsqaUBKTNV-1" source="vrZAYbkZ-h7YE_ZRuM2D-28" target="vrZAYbkZ-h7YE_ZRuM2D-28" edge="1">
          <mxGeometry relative="1" as="geometry" />
        </mxCell>
        <mxCell id="T6Tp6hZ9WiSjCjkS2Gaq-76" style="edgeStyle=orthogonalEdgeStyle;rounded=0;orthogonalLoop=1;jettySize=auto;html=1;exitX=0.5;exitY=0;exitDx=0;exitDy=0;startArrow=none;startFill=0;startSize=14;endArrow=block;endFill=0;endSize=14;" parent="WIyWlLk6GJQsqaUBKTNV-1" source="T6Tp6hZ9WiSjCjkS2Gaq-13" target="vrZAYbkZ-h7YE_ZRuM2D-63" edge="1">
          <mxGeometry relative="1" as="geometry" />
        </mxCell>
        <mxCell id="T6Tp6hZ9WiSjCjkS2Gaq-13" value="ProyectilEnemigoAlpha" style="swimlane;fontStyle=1;align=center;verticalAlign=top;childLayout=stackLayout;horizontal=1;startSize=26;horizontalStack=0;resizeParent=1;resizeParentMax=0;resizeLast=0;collapsible=1;marginBottom=0;" parent="WIyWlLk6GJQsqaUBKTNV-1" vertex="1" collapsed="1">
          <mxGeometry x="-339" y="408" width="149" height="26" as="geometry">
            <mxRectangle x="400" y="320" width="160" height="86" as="alternateBounds" />
          </mxGeometry>
        </mxCell>
        <mxCell id="T6Tp6hZ9WiSjCjkS2Gaq-14" value="#rangoPropagacion:int&#xa;" style="text;strokeColor=none;fillColor=none;align=left;verticalAlign=top;spacingLeft=4;spacingRight=4;overflow=hidden;rotatable=0;points=[[0,0.5],[1,0.5]];portConstraint=eastwest;" parent="T6Tp6hZ9WiSjCjkS2Gaq-13" vertex="1">
          <mxGeometry y="26" width="149" height="26" as="geometry" />
        </mxCell>
        <mxCell id="T6Tp6hZ9WiSjCjkS2Gaq-15" value="" style="line;strokeWidth=1;fillColor=none;align=left;verticalAlign=middle;spacingTop=-1;spacingLeft=3;spacingRight=3;rotatable=0;labelPosition=right;points=[];portConstraint=eastwest;" parent="T6Tp6hZ9WiSjCjkS2Gaq-13" vertex="1">
          <mxGeometry y="52" width="149" height="8" as="geometry" />
        </mxCell>
        <mxCell id="T6Tp6hZ9WiSjCjkS2Gaq-16" value="+PotadorVirus()" style="text;strokeColor=none;fillColor=none;align=left;verticalAlign=top;spacingLeft=4;spacingRight=4;overflow=hidden;rotatable=0;points=[[0,0.5],[1,0.5]];portConstraint=eastwest;" parent="T6Tp6hZ9WiSjCjkS2Gaq-13" vertex="1">
          <mxGeometry y="60" width="149" height="26" as="geometry" />
        </mxCell>
        <mxCell id="T6Tp6hZ9WiSjCjkS2Gaq-28" style="edgeStyle=orthogonalEdgeStyle;rounded=0;orthogonalLoop=1;jettySize=auto;html=1;exitX=0.5;exitY=0;exitDx=0;exitDy=0;startSize=10;endArrow=block;endFill=0;endSize=14;" parent="WIyWlLk6GJQsqaUBKTNV-1" source="T6Tp6hZ9WiSjCjkS2Gaq-18" target="vrZAYbkZ-h7YE_ZRuM2D-63" edge="1">
          <mxGeometry relative="1" as="geometry" />
        </mxCell>
        <mxCell id="T6Tp6hZ9WiSjCjkS2Gaq-18" value="ProyectilEnemigoGamma" style="swimlane;fontStyle=1;align=center;verticalAlign=top;childLayout=stackLayout;horizontal=1;startSize=26;horizontalStack=0;resizeParent=1;resizeParentMax=0;resizeLast=0;collapsible=1;marginBottom=0;" parent="WIyWlLk6GJQsqaUBKTNV-1" vertex="1" collapsed="1">
          <mxGeometry x="1" y="408" width="149" height="26" as="geometry">
            <mxRectangle x="400" y="320" width="160" height="86" as="alternateBounds" />
          </mxGeometry>
        </mxCell>
        <mxCell id="T6Tp6hZ9WiSjCjkS2Gaq-19" value="#rangoPropagacion:int&#xa;" style="text;strokeColor=none;fillColor=none;align=left;verticalAlign=top;spacingLeft=4;spacingRight=4;overflow=hidden;rotatable=0;points=[[0,0.5],[1,0.5]];portConstraint=eastwest;" parent="T6Tp6hZ9WiSjCjkS2Gaq-18" vertex="1">
          <mxGeometry y="26" width="149" height="26" as="geometry" />
        </mxCell>
        <mxCell id="T6Tp6hZ9WiSjCjkS2Gaq-20" value="" style="line;strokeWidth=1;fillColor=none;align=left;verticalAlign=middle;spacingTop=-1;spacingLeft=3;spacingRight=3;rotatable=0;labelPosition=right;points=[];portConstraint=eastwest;" parent="T6Tp6hZ9WiSjCjkS2Gaq-18" vertex="1">
          <mxGeometry y="52" width="149" height="8" as="geometry" />
        </mxCell>
        <mxCell id="T6Tp6hZ9WiSjCjkS2Gaq-21" value="+PotadorVirus()" style="text;strokeColor=none;fillColor=none;align=left;verticalAlign=top;spacingLeft=4;spacingRight=4;overflow=hidden;rotatable=0;points=[[0,0.5],[1,0.5]];portConstraint=eastwest;" parent="T6Tp6hZ9WiSjCjkS2Gaq-18" vertex="1">
          <mxGeometry y="60" width="149" height="26" as="geometry" />
        </mxCell>
        <mxCell id="T6Tp6hZ9WiSjCjkS2Gaq-27" style="edgeStyle=orthogonalEdgeStyle;rounded=0;orthogonalLoop=1;jettySize=auto;html=1;exitX=0.5;exitY=0;exitDx=0;exitDy=0;entryX=0.5;entryY=1;entryDx=0;entryDy=0;startSize=10;endArrow=block;endFill=0;endSize=14;" parent="WIyWlLk6GJQsqaUBKTNV-1" source="T6Tp6hZ9WiSjCjkS2Gaq-22" target="vrZAYbkZ-h7YE_ZRuM2D-63" edge="1">
          <mxGeometry relative="1" as="geometry" />
        </mxCell>
        <mxCell id="T6Tp6hZ9WiSjCjkS2Gaq-22" value="ProyectilEnemigoBeta" style="swimlane;fontStyle=1;align=center;verticalAlign=top;childLayout=stackLayout;horizontal=1;startSize=26;horizontalStack=0;resizeParent=1;resizeParentMax=0;resizeLast=0;collapsible=1;marginBottom=0;" parent="WIyWlLk6GJQsqaUBKTNV-1" vertex="1" collapsed="1">
          <mxGeometry x="-169" y="408" width="149" height="26" as="geometry">
            <mxRectangle x="400" y="320" width="160" height="86" as="alternateBounds" />
          </mxGeometry>
        </mxCell>
        <mxCell id="T6Tp6hZ9WiSjCjkS2Gaq-23" value="#rangoPropagacion:int&#xa;" style="text;strokeColor=none;fillColor=none;align=left;verticalAlign=top;spacingLeft=4;spacingRight=4;overflow=hidden;rotatable=0;points=[[0,0.5],[1,0.5]];portConstraint=eastwest;" parent="T6Tp6hZ9WiSjCjkS2Gaq-22" vertex="1">
          <mxGeometry y="26" width="149" height="26" as="geometry" />
        </mxCell>
        <mxCell id="T6Tp6hZ9WiSjCjkS2Gaq-24" value="" style="line;strokeWidth=1;fillColor=none;align=left;verticalAlign=middle;spacingTop=-1;spacingLeft=3;spacingRight=3;rotatable=0;labelPosition=right;points=[];portConstraint=eastwest;" parent="T6Tp6hZ9WiSjCjkS2Gaq-22" vertex="1">
          <mxGeometry y="52" width="149" height="8" as="geometry" />
        </mxCell>
        <mxCell id="T6Tp6hZ9WiSjCjkS2Gaq-25" value="+PotadorVirus()" style="text;strokeColor=none;fillColor=none;align=left;verticalAlign=top;spacingLeft=4;spacingRight=4;overflow=hidden;rotatable=0;points=[[0,0.5],[1,0.5]];portConstraint=eastwest;" parent="T6Tp6hZ9WiSjCjkS2Gaq-22" vertex="1">
          <mxGeometry y="60" width="149" height="26" as="geometry" />
        </mxCell>
        <mxCell id="T6Tp6hZ9WiSjCjkS2Gaq-39" value="&lt;div&gt;0..1&lt;/div&gt;" style="text;html=1;align=center;verticalAlign=middle;resizable=0;points=[];autosize=1;" parent="WIyWlLk6GJQsqaUBKTNV-1" vertex="1">
          <mxGeometry x="1110" y="160" width="40" height="20" as="geometry" />
        </mxCell>
        <mxCell id="T6Tp6hZ9WiSjCjkS2Gaq-40" value="#powerUp" style="text;html=1;align=center;verticalAlign=middle;resizable=0;points=[];autosize=1;" parent="WIyWlLk6GJQsqaUBKTNV-1" vertex="1">
          <mxGeometry x="940" y="164" width="70" height="20" as="geometry" />
        </mxCell>
        <mxCell id="T6Tp6hZ9WiSjCjkS2Gaq-49" style="edgeStyle=orthogonalEdgeStyle;rounded=0;orthogonalLoop=1;jettySize=auto;html=1;exitX=0.5;exitY=0;exitDx=0;exitDy=0;entryX=0.5;entryY=1;entryDx=0;entryDy=0;startArrow=none;startFill=0;startSize=14;endArrow=block;endFill=0;endSize=14;" parent="WIyWlLk6GJQsqaUBKTNV-1" source="T6Tp6hZ9WiSjCjkS2Gaq-42" target="vrZAYbkZ-h7YE_ZRuM2D-56" edge="1">
          <mxGeometry relative="1" as="geometry">
            <Array as="points">
              <mxPoint x="520" y="390" />
              <mxPoint x="360" y="390" />
            </Array>
          </mxGeometry>
        </mxCell>
        <mxCell id="T6Tp6hZ9WiSjCjkS2Gaq-42" value="ArmaEnemiga" style="swimlane;fontStyle=3;align=center;verticalAlign=top;childLayout=stackLayout;horizontal=1;startSize=26;horizontalStack=0;resizeParent=1;resizeParentMax=0;resizeLast=0;collapsible=1;marginBottom=0;" parent="WIyWlLk6GJQsqaUBKTNV-1" vertex="1" collapsed="1">
          <mxGeometry x="459.75" y="420" width="120" height="26" as="geometry">
            <mxRectangle x="70" y="360" width="160" height="60" as="alternateBounds" />
          </mxGeometry>
        </mxCell>
        <mxCell id="T6Tp6hZ9WiSjCjkS2Gaq-43" value="+NavePersonaje()" style="text;strokeColor=none;fillColor=none;align=left;verticalAlign=top;spacingLeft=4;spacingRight=4;overflow=hidden;rotatable=0;points=[[0,0.5],[1,0.5]];portConstraint=eastwest;" parent="T6Tp6hZ9WiSjCjkS2Gaq-42" vertex="1">
          <mxGeometry y="26" width="120" height="26" as="geometry" />
        </mxCell>
        <mxCell id="T6Tp6hZ9WiSjCjkS2Gaq-44" value="" style="line;strokeWidth=1;fillColor=none;align=left;verticalAlign=middle;spacingTop=-1;spacingLeft=3;spacingRight=3;rotatable=0;labelPosition=right;points=[];portConstraint=eastwest;" parent="T6Tp6hZ9WiSjCjkS2Gaq-42" vertex="1">
          <mxGeometry y="52" width="120" height="8" as="geometry" />
        </mxCell>
        <mxCell id="T6Tp6hZ9WiSjCjkS2Gaq-48" style="edgeStyle=orthogonalEdgeStyle;rounded=0;orthogonalLoop=1;jettySize=auto;html=1;exitX=0.5;exitY=0;exitDx=0;exitDy=0;entryX=0.5;entryY=1;entryDx=0;entryDy=0;startArrow=none;startFill=0;startSize=14;endArrow=block;endFill=0;endSize=14;" parent="WIyWlLk6GJQsqaUBKTNV-1" source="T6Tp6hZ9WiSjCjkS2Gaq-45" target="vrZAYbkZ-h7YE_ZRuM2D-56" edge="1">
          <mxGeometry relative="1" as="geometry">
            <Array as="points">
              <mxPoint x="260" y="390" />
              <mxPoint x="360" y="390" />
            </Array>
          </mxGeometry>
        </mxCell>
        <mxCell id="T6Tp6hZ9WiSjCjkS2Gaq-45" value="ArmaJugador" style="swimlane;fontStyle=1;align=center;verticalAlign=top;childLayout=stackLayout;horizontal=1;startSize=26;horizontalStack=0;resizeParent=1;resizeParentMax=0;resizeLast=0;collapsible=1;marginBottom=0;" parent="WIyWlLk6GJQsqaUBKTNV-1" vertex="1" collapsed="1">
          <mxGeometry x="199.75" y="420" width="120" height="26" as="geometry">
            <mxRectangle x="70" y="360" width="160" height="60" as="alternateBounds" />
          </mxGeometry>
        </mxCell>
        <mxCell id="T6Tp6hZ9WiSjCjkS2Gaq-46" value="+NavePersonaje()" style="text;strokeColor=none;fillColor=none;align=left;verticalAlign=top;spacingLeft=4;spacingRight=4;overflow=hidden;rotatable=0;points=[[0,0.5],[1,0.5]];portConstraint=eastwest;" parent="T6Tp6hZ9WiSjCjkS2Gaq-45" vertex="1">
          <mxGeometry y="26" width="120" height="26" as="geometry" />
        </mxCell>
        <mxCell id="T6Tp6hZ9WiSjCjkS2Gaq-47" value="" style="line;strokeWidth=1;fillColor=none;align=left;verticalAlign=middle;spacingTop=-1;spacingLeft=3;spacingRight=3;rotatable=0;labelPosition=right;points=[];portConstraint=eastwest;" parent="T6Tp6hZ9WiSjCjkS2Gaq-45" vertex="1">
          <mxGeometry y="52" width="120" height="8" as="geometry" />
        </mxCell>
        <mxCell id="T6Tp6hZ9WiSjCjkS2Gaq-67" style="edgeStyle=orthogonalEdgeStyle;rounded=0;orthogonalLoop=1;jettySize=auto;html=1;exitX=0.5;exitY=0;exitDx=0;exitDy=0;startArrow=none;startFill=0;startSize=14;endArrow=block;endFill=0;endSize=14;" parent="WIyWlLk6GJQsqaUBKTNV-1" source="T6Tp6hZ9WiSjCjkS2Gaq-50" target="T6Tp6hZ9WiSjCjkS2Gaq-42" edge="1">
          <mxGeometry relative="1" as="geometry" />
        </mxCell>
        <mxCell id="T6Tp6hZ9WiSjCjkS2Gaq-50" value="ArmaEnemigaAlpha" style="swimlane;fontStyle=1;align=center;verticalAlign=top;childLayout=stackLayout;horizontal=1;startSize=26;horizontalStack=0;resizeParent=1;resizeParentMax=0;resizeLast=0;collapsible=1;marginBottom=0;" parent="WIyWlLk6GJQsqaUBKTNV-1" vertex="1" collapsed="1">
          <mxGeometry x="349.75" y="530.99" width="149" height="26" as="geometry">
            <mxRectangle x="400" y="320" width="160" height="86" as="alternateBounds" />
          </mxGeometry>
        </mxCell>
        <mxCell id="T6Tp6hZ9WiSjCjkS2Gaq-51" value="#rangoPropagacion:int&#xa;" style="text;strokeColor=none;fillColor=none;align=left;verticalAlign=top;spacingLeft=4;spacingRight=4;overflow=hidden;rotatable=0;points=[[0,0.5],[1,0.5]];portConstraint=eastwest;" parent="T6Tp6hZ9WiSjCjkS2Gaq-50" vertex="1">
          <mxGeometry y="26" width="149" height="26" as="geometry" />
        </mxCell>
        <mxCell id="T6Tp6hZ9WiSjCjkS2Gaq-52" value="" style="line;strokeWidth=1;fillColor=none;align=left;verticalAlign=middle;spacingTop=-1;spacingLeft=3;spacingRight=3;rotatable=0;labelPosition=right;points=[];portConstraint=eastwest;" parent="T6Tp6hZ9WiSjCjkS2Gaq-50" vertex="1">
          <mxGeometry y="52" width="149" height="8" as="geometry" />
        </mxCell>
        <mxCell id="T6Tp6hZ9WiSjCjkS2Gaq-53" value="+PotadorVirus()" style="text;strokeColor=none;fillColor=none;align=left;verticalAlign=top;spacingLeft=4;spacingRight=4;overflow=hidden;rotatable=0;points=[[0,0.5],[1,0.5]];portConstraint=eastwest;" parent="T6Tp6hZ9WiSjCjkS2Gaq-50" vertex="1">
          <mxGeometry y="60" width="149" height="26" as="geometry" />
        </mxCell>
        <mxCell id="T6Tp6hZ9WiSjCjkS2Gaq-66" style="edgeStyle=orthogonalEdgeStyle;rounded=0;orthogonalLoop=1;jettySize=auto;html=1;exitX=0.5;exitY=0;exitDx=0;exitDy=0;entryX=0.5;entryY=1;entryDx=0;entryDy=0;startArrow=none;startFill=0;startSize=14;endArrow=block;endFill=0;endSize=14;" parent="WIyWlLk6GJQsqaUBKTNV-1" source="T6Tp6hZ9WiSjCjkS2Gaq-54" target="T6Tp6hZ9WiSjCjkS2Gaq-42" edge="1">
          <mxGeometry relative="1" as="geometry" />
        </mxCell>
        <mxCell id="T6Tp6hZ9WiSjCjkS2Gaq-54" value="ArmaEnemigaBeta" style="swimlane;fontStyle=1;align=center;verticalAlign=top;childLayout=stackLayout;horizontal=1;startSize=26;horizontalStack=0;resizeParent=1;resizeParentMax=0;resizeLast=0;collapsible=1;marginBottom=0;" parent="WIyWlLk6GJQsqaUBKTNV-1" vertex="1" collapsed="1">
          <mxGeometry x="519.75" y="530.99" width="149" height="26" as="geometry">
            <mxRectangle x="400" y="320" width="160" height="86" as="alternateBounds" />
          </mxGeometry>
        </mxCell>
        <mxCell id="T6Tp6hZ9WiSjCjkS2Gaq-55" value="#rangoPropagacion:int&#xa;" style="text;strokeColor=none;fillColor=none;align=left;verticalAlign=top;spacingLeft=4;spacingRight=4;overflow=hidden;rotatable=0;points=[[0,0.5],[1,0.5]];portConstraint=eastwest;" parent="T6Tp6hZ9WiSjCjkS2Gaq-54" vertex="1">
          <mxGeometry y="26" width="149" height="26" as="geometry" />
        </mxCell>
        <mxCell id="T6Tp6hZ9WiSjCjkS2Gaq-56" value="" style="line;strokeWidth=1;fillColor=none;align=left;verticalAlign=middle;spacingTop=-1;spacingLeft=3;spacingRight=3;rotatable=0;labelPosition=right;points=[];portConstraint=eastwest;" parent="T6Tp6hZ9WiSjCjkS2Gaq-54" vertex="1">
          <mxGeometry y="52" width="149" height="8" as="geometry" />
        </mxCell>
        <mxCell id="T6Tp6hZ9WiSjCjkS2Gaq-57" value="+PotadorVirus()" style="text;strokeColor=none;fillColor=none;align=left;verticalAlign=top;spacingLeft=4;spacingRight=4;overflow=hidden;rotatable=0;points=[[0,0.5],[1,0.5]];portConstraint=eastwest;" parent="T6Tp6hZ9WiSjCjkS2Gaq-54" vertex="1">
          <mxGeometry y="60" width="149" height="26" as="geometry" />
        </mxCell>
        <mxCell id="T6Tp6hZ9WiSjCjkS2Gaq-68" style="edgeStyle=orthogonalEdgeStyle;rounded=0;orthogonalLoop=1;jettySize=auto;html=1;exitX=0.5;exitY=0;exitDx=0;exitDy=0;startArrow=none;startFill=0;startSize=14;endArrow=block;endFill=0;endSize=14;" parent="WIyWlLk6GJQsqaUBKTNV-1" source="T6Tp6hZ9WiSjCjkS2Gaq-58" target="T6Tp6hZ9WiSjCjkS2Gaq-42" edge="1">
          <mxGeometry relative="1" as="geometry" />
        </mxCell>
        <mxCell id="T6Tp6hZ9WiSjCjkS2Gaq-58" value="ArmaEnemigaGamma" style="swimlane;fontStyle=1;align=center;verticalAlign=top;childLayout=stackLayout;horizontal=1;startSize=26;horizontalStack=0;resizeParent=1;resizeParentMax=0;resizeLast=0;collapsible=1;marginBottom=0;" parent="WIyWlLk6GJQsqaUBKTNV-1" vertex="1" collapsed="1">
          <mxGeometry x="691.25" y="530.99" width="149" height="26" as="geometry">
            <mxRectangle x="400" y="320" width="160" height="86" as="alternateBounds" />
          </mxGeometry>
        </mxCell>
        <mxCell id="T6Tp6hZ9WiSjCjkS2Gaq-59" value="#rangoPropagacion:int&#xa;" style="text;strokeColor=none;fillColor=none;align=left;verticalAlign=top;spacingLeft=4;spacingRight=4;overflow=hidden;rotatable=0;points=[[0,0.5],[1,0.5]];portConstraint=eastwest;" parent="T6Tp6hZ9WiSjCjkS2Gaq-58" vertex="1">
          <mxGeometry y="26" width="149" height="26" as="geometry" />
        </mxCell>
        <mxCell id="T6Tp6hZ9WiSjCjkS2Gaq-60" value="" style="line;strokeWidth=1;fillColor=none;align=left;verticalAlign=middle;spacingTop=-1;spacingLeft=3;spacingRight=3;rotatable=0;labelPosition=right;points=[];portConstraint=eastwest;" parent="T6Tp6hZ9WiSjCjkS2Gaq-58" vertex="1">
          <mxGeometry y="52" width="149" height="8" as="geometry" />
        </mxCell>
        <mxCell id="T6Tp6hZ9WiSjCjkS2Gaq-61" value="+PotadorVirus()" style="text;strokeColor=none;fillColor=none;align=left;verticalAlign=top;spacingLeft=4;spacingRight=4;overflow=hidden;rotatable=0;points=[[0,0.5],[1,0.5]];portConstraint=eastwest;" parent="T6Tp6hZ9WiSjCjkS2Gaq-58" vertex="1">
          <mxGeometry y="60" width="149" height="26" as="geometry" />
        </mxCell>
        <mxCell id="T6Tp6hZ9WiSjCjkS2Gaq-65" style="edgeStyle=orthogonalEdgeStyle;rounded=0;orthogonalLoop=1;jettySize=auto;html=1;exitX=0.5;exitY=0;exitDx=0;exitDy=0;entryX=0.5;entryY=1;entryDx=0;entryDy=0;startArrow=none;startFill=0;startSize=14;endArrow=block;endFill=0;endSize=14;" parent="WIyWlLk6GJQsqaUBKTNV-1" source="T6Tp6hZ9WiSjCjkS2Gaq-62" target="T6Tp6hZ9WiSjCjkS2Gaq-45" edge="1">
          <mxGeometry relative="1" as="geometry" />
        </mxCell>
        <mxCell id="T6Tp6hZ9WiSjCjkS2Gaq-62" value="ArmaSuper" style="swimlane;fontStyle=1;align=center;verticalAlign=top;childLayout=stackLayout;horizontal=1;startSize=26;horizontalStack=0;resizeParent=1;resizeParentMax=0;resizeLast=0;collapsible=1;marginBottom=0;" parent="WIyWlLk6GJQsqaUBKTNV-1" vertex="1" collapsed="1">
          <mxGeometry x="199.75" y="530.99" width="120" height="26" as="geometry">
            <mxRectangle x="70" y="360" width="160" height="60" as="alternateBounds" />
          </mxGeometry>
        </mxCell>
        <mxCell id="T6Tp6hZ9WiSjCjkS2Gaq-63" value="+NavePersonaje()" style="text;strokeColor=none;fillColor=none;align=left;verticalAlign=top;spacingLeft=4;spacingRight=4;overflow=hidden;rotatable=0;points=[[0,0.5],[1,0.5]];portConstraint=eastwest;" parent="T6Tp6hZ9WiSjCjkS2Gaq-62" vertex="1">
          <mxGeometry y="26" width="120" height="26" as="geometry" />
        </mxCell>
        <mxCell id="T6Tp6hZ9WiSjCjkS2Gaq-64" value="" style="line;strokeWidth=1;fillColor=none;align=left;verticalAlign=middle;spacingTop=-1;spacingLeft=3;spacingRight=3;rotatable=0;labelPosition=right;points=[];portConstraint=eastwest;" parent="T6Tp6hZ9WiSjCjkS2Gaq-62" vertex="1">
          <mxGeometry y="52" width="120" height="8" as="geometry" />
        </mxCell>
        <mxCell id="T6Tp6hZ9WiSjCjkS2Gaq-90" style="edgeStyle=orthogonalEdgeStyle;rounded=0;orthogonalLoop=1;jettySize=auto;html=1;exitX=0.5;exitY=1;exitDx=0;exitDy=0;entryX=1;entryY=0.25;entryDx=0;entryDy=0;startArrow=none;startFill=0;startSize=14;endArrow=open;endFill=0;endSize=14;" parent="WIyWlLk6GJQsqaUBKTNV-1" source="T6Tp6hZ9WiSjCjkS2Gaq-88" target="vrZAYbkZ-h7YE_ZRuM2D-16" edge="1">
          <mxGeometry relative="1" as="geometry">
            <Array as="points">
              <mxPoint x="1815" y="610" />
              <mxPoint x="870" y="610" />
              <mxPoint x="870" y="310" />
              <mxPoint x="790" y="310" />
              <mxPoint x="790" y="269" />
            </Array>
          </mxGeometry>
        </mxCell>
        <mxCell id="T6Tp6hZ9WiSjCjkS2Gaq-103" style="edgeStyle=orthogonalEdgeStyle;rounded=0;orthogonalLoop=1;jettySize=auto;html=1;exitX=0.5;exitY=0;exitDx=0;exitDy=0;entryX=0.5;entryY=1;entryDx=0;entryDy=0;startArrow=none;startFill=0;startSize=14;endArrow=block;endFill=0;endSize=14;dashed=1;" parent="WIyWlLk6GJQsqaUBKTNV-1" source="T6Tp6hZ9WiSjCjkS2Gaq-88" target="-q3Nb7MG7wlZvP0WR283-0" edge="1">
          <mxGeometry relative="1" as="geometry" />
        </mxCell>
        <mxCell id="T6Tp6hZ9WiSjCjkS2Gaq-88" value="VisitorNaveEnemiga" style="swimlane;fontStyle=1;align=center;verticalAlign=top;childLayout=stackLayout;horizontal=1;startSize=26;horizontalStack=0;resizeParent=1;resizeParentMax=0;resizeLast=0;collapsible=1;marginBottom=0;" parent="WIyWlLk6GJQsqaUBKTNV-1" vertex="1" collapsed="1">
          <mxGeometry x="1750" y="-60" width="130" height="26" as="geometry">
            <mxRectangle x="120" y="-80" width="160" height="34" as="alternateBounds" />
          </mxGeometry>
        </mxCell>
        <mxCell id="T6Tp6hZ9WiSjCjkS2Gaq-89" value="" style="line;strokeWidth=1;fillColor=none;align=left;verticalAlign=middle;spacingTop=-1;spacingLeft=3;spacingRight=3;rotatable=0;labelPosition=right;points=[];portConstraint=eastwest;" parent="T6Tp6hZ9WiSjCjkS2Gaq-88" vertex="1">
          <mxGeometry y="26" width="130" height="8" as="geometry" />
        </mxCell>
        <mxCell id="T6Tp6hZ9WiSjCjkS2Gaq-108" style="edgeStyle=orthogonalEdgeStyle;rounded=0;orthogonalLoop=1;jettySize=auto;html=1;exitX=0.5;exitY=0;exitDx=0;exitDy=0;entryX=0.5;entryY=1;entryDx=0;entryDy=0;startArrow=none;startFill=0;startSize=14;endArrow=block;endFill=0;endSize=14;dashed=1;" parent="WIyWlLk6GJQsqaUBKTNV-1" source="T6Tp6hZ9WiSjCjkS2Gaq-91" target="-q3Nb7MG7wlZvP0WR283-0" edge="1">
          <mxGeometry relative="1" as="geometry" />
        </mxCell>
        <mxCell id="T6Tp6hZ9WiSjCjkS2Gaq-91" value="VisitorNaveJugador" style="swimlane;fontStyle=1;align=center;verticalAlign=top;childLayout=stackLayout;horizontal=1;startSize=26;horizontalStack=0;resizeParent=1;resizeParentMax=0;resizeLast=0;collapsible=1;marginBottom=0;" parent="WIyWlLk6GJQsqaUBKTNV-1" vertex="1" collapsed="1">
          <mxGeometry x="1590" y="-60" width="130" height="26" as="geometry">
            <mxRectangle x="120" y="-80" width="160" height="34" as="alternateBounds" />
          </mxGeometry>
        </mxCell>
        <mxCell id="T6Tp6hZ9WiSjCjkS2Gaq-92" value="" style="line;strokeWidth=1;fillColor=none;align=left;verticalAlign=middle;spacingTop=-1;spacingLeft=3;spacingRight=3;rotatable=0;labelPosition=right;points=[];portConstraint=eastwest;" parent="T6Tp6hZ9WiSjCjkS2Gaq-91" vertex="1">
          <mxGeometry y="26" width="130" height="8" as="geometry" />
        </mxCell>
        <mxCell id="T6Tp6hZ9WiSjCjkS2Gaq-96" style="edgeStyle=orthogonalEdgeStyle;rounded=0;orthogonalLoop=1;jettySize=auto;html=1;exitX=0.5;exitY=1;exitDx=0;exitDy=0;entryX=1;entryY=0.5;entryDx=0;entryDy=0;startArrow=none;startFill=0;startSize=14;endArrow=open;endFill=0;endSize=14;" parent="WIyWlLk6GJQsqaUBKTNV-1" source="T6Tp6hZ9WiSjCjkS2Gaq-94" target="vrZAYbkZ-h7YE_ZRuM2D-33" edge="1">
          <mxGeometry relative="1" as="geometry" />
        </mxCell>
        <mxCell id="T6Tp6hZ9WiSjCjkS2Gaq-107" style="edgeStyle=orthogonalEdgeStyle;rounded=0;orthogonalLoop=1;jettySize=auto;html=1;exitX=0.5;exitY=0;exitDx=0;exitDy=0;entryX=0.5;entryY=1;entryDx=0;entryDy=0;startArrow=none;startFill=0;startSize=14;endArrow=block;endFill=0;endSize=14;dashed=1;" parent="WIyWlLk6GJQsqaUBKTNV-1" source="T6Tp6hZ9WiSjCjkS2Gaq-94" target="-q3Nb7MG7wlZvP0WR283-0" edge="1">
          <mxGeometry relative="1" as="geometry" />
        </mxCell>
        <mxCell id="T6Tp6hZ9WiSjCjkS2Gaq-94" value="VisitorPremio" style="swimlane;fontStyle=1;align=center;verticalAlign=top;childLayout=stackLayout;horizontal=1;startSize=26;horizontalStack=0;resizeParent=1;resizeParentMax=0;resizeLast=0;collapsible=1;marginBottom=0;" parent="WIyWlLk6GJQsqaUBKTNV-1" vertex="1" collapsed="1">
          <mxGeometry x="1420" y="-60" width="130" height="26" as="geometry">
            <mxRectangle x="120" y="-80" width="160" height="34" as="alternateBounds" />
          </mxGeometry>
        </mxCell>
        <mxCell id="T6Tp6hZ9WiSjCjkS2Gaq-95" value="" style="line;strokeWidth=1;fillColor=none;align=left;verticalAlign=middle;spacingTop=-1;spacingLeft=3;spacingRight=3;rotatable=0;labelPosition=right;points=[];portConstraint=eastwest;" parent="T6Tp6hZ9WiSjCjkS2Gaq-94" vertex="1">
          <mxGeometry y="26" width="130" height="8" as="geometry" />
        </mxCell>
        <mxCell id="T6Tp6hZ9WiSjCjkS2Gaq-99" style="edgeStyle=orthogonalEdgeStyle;rounded=0;orthogonalLoop=1;jettySize=auto;html=1;exitX=0.5;exitY=1;exitDx=0;exitDy=0;startArrow=none;startFill=0;startSize=14;endArrow=open;endFill=0;endSize=14;entryX=1;entryY=0.5;entryDx=0;entryDy=0;" parent="WIyWlLk6GJQsqaUBKTNV-1" source="T6Tp6hZ9WiSjCjkS2Gaq-97" target="vrZAYbkZ-h7YE_ZRuM2D-67" edge="1">
          <mxGeometry relative="1" as="geometry">
            <mxPoint x="950" y="710" as="targetPoint" />
            <Array as="points">
              <mxPoint x="1985" y="630" />
              <mxPoint x="190" y="630" />
              <mxPoint x="190" y="321" />
            </Array>
          </mxGeometry>
        </mxCell>
        <mxCell id="T6Tp6hZ9WiSjCjkS2Gaq-109" style="edgeStyle=orthogonalEdgeStyle;rounded=0;orthogonalLoop=1;jettySize=auto;html=1;exitX=0.5;exitY=0;exitDx=0;exitDy=0;entryX=0.5;entryY=1;entryDx=0;entryDy=0;startArrow=none;startFill=0;startSize=14;endArrow=block;endFill=0;endSize=14;dashed=1;" parent="WIyWlLk6GJQsqaUBKTNV-1" source="T6Tp6hZ9WiSjCjkS2Gaq-97" target="-q3Nb7MG7wlZvP0WR283-0" edge="1">
          <mxGeometry relative="1" as="geometry" />
        </mxCell>
        <mxCell id="T6Tp6hZ9WiSjCjkS2Gaq-97" value="VisitorProyectilJugador" style="swimlane;fontStyle=1;align=center;verticalAlign=top;childLayout=stackLayout;horizontal=1;startSize=26;horizontalStack=0;resizeParent=1;resizeParentMax=0;resizeLast=0;collapsible=1;marginBottom=0;" parent="WIyWlLk6GJQsqaUBKTNV-1" vertex="1" collapsed="1">
          <mxGeometry x="1910" y="-60" width="150" height="26" as="geometry">
            <mxRectangle x="120" y="-80" width="160" height="34" as="alternateBounds" />
          </mxGeometry>
        </mxCell>
        <mxCell id="T6Tp6hZ9WiSjCjkS2Gaq-98" value="" style="line;strokeWidth=1;fillColor=none;align=left;verticalAlign=middle;spacingTop=-1;spacingLeft=3;spacingRight=3;rotatable=0;labelPosition=right;points=[];portConstraint=eastwest;" parent="T6Tp6hZ9WiSjCjkS2Gaq-97" vertex="1">
          <mxGeometry y="26" width="150" height="8" as="geometry" />
        </mxCell>
        <mxCell id="T6Tp6hZ9WiSjCjkS2Gaq-102" style="edgeStyle=orthogonalEdgeStyle;rounded=0;orthogonalLoop=1;jettySize=auto;html=1;exitX=0.5;exitY=1;exitDx=0;exitDy=0;startArrow=none;startFill=0;startSize=14;endArrow=open;endFill=0;endSize=14;entryX=1;entryY=0.5;entryDx=0;entryDy=0;" parent="WIyWlLk6GJQsqaUBKTNV-1" source="T6Tp6hZ9WiSjCjkS2Gaq-100" target="vrZAYbkZ-h7YE_ZRuM2D-63" edge="1">
          <mxGeometry relative="1" as="geometry">
            <mxPoint x="630" y="700" as="targetPoint" />
            <Array as="points">
              <mxPoint x="2165" y="650" />
              <mxPoint x="160" y="650" />
              <mxPoint x="160" y="350" />
              <mxPoint x="-30" y="350" />
              <mxPoint x="-30" y="321" />
            </Array>
          </mxGeometry>
        </mxCell>
        <mxCell id="T6Tp6hZ9WiSjCjkS2Gaq-132" style="edgeStyle=orthogonalEdgeStyle;rounded=0;orthogonalLoop=1;jettySize=auto;html=1;exitX=0.5;exitY=0;exitDx=0;exitDy=0;entryX=0.5;entryY=1;entryDx=0;entryDy=0;startArrow=none;startFill=0;startSize=14;endArrow=block;endFill=0;endSize=14;dashed=1;" parent="WIyWlLk6GJQsqaUBKTNV-1" source="T6Tp6hZ9WiSjCjkS2Gaq-100" target="-q3Nb7MG7wlZvP0WR283-0" edge="1">
          <mxGeometry relative="1" as="geometry" />
        </mxCell>
        <mxCell id="T6Tp6hZ9WiSjCjkS2Gaq-100" value="VisitorProyectilEnemmigo" style="swimlane;fontStyle=1;align=center;verticalAlign=top;childLayout=stackLayout;horizontal=1;startSize=26;horizontalStack=0;resizeParent=1;resizeParentMax=0;resizeLast=0;collapsible=1;marginBottom=0;" parent="WIyWlLk6GJQsqaUBKTNV-1" vertex="1" collapsed="1">
          <mxGeometry x="2090" y="-60" width="150" height="26" as="geometry">
            <mxRectangle x="120" y="-80" width="160" height="34" as="alternateBounds" />
          </mxGeometry>
        </mxCell>
        <mxCell id="T6Tp6hZ9WiSjCjkS2Gaq-101" value="" style="line;strokeWidth=1;fillColor=none;align=left;verticalAlign=middle;spacingTop=-1;spacingLeft=3;spacingRight=3;rotatable=0;labelPosition=right;points=[];portConstraint=eastwest;" parent="T6Tp6hZ9WiSjCjkS2Gaq-100" vertex="1">
          <mxGeometry y="26" width="150" height="8" as="geometry" />
        </mxCell>
        <mxCell id="T6Tp6hZ9WiSjCjkS2Gaq-110" value="&lt;div&gt;1&lt;/div&gt;" style="text;html=1;align=center;verticalAlign=middle;resizable=0;points=[];autosize=1;" parent="WIyWlLk6GJQsqaUBKTNV-1" vertex="1">
          <mxGeometry x="430" y="-120" width="20" height="20" as="geometry" />
        </mxCell>
        <mxCell id="T6Tp6hZ9WiSjCjkS2Gaq-111" value="#entidad" style="text;html=1;align=center;verticalAlign=middle;resizable=0;points=[];autosize=1;" parent="WIyWlLk6GJQsqaUBKTNV-1" vertex="1">
          <mxGeometry x="430" y="-160" width="60" height="20" as="geometry" />
        </mxCell>
        <mxCell id="T6Tp6hZ9WiSjCjkS2Gaq-112" value="1" style="text;html=1;align=center;verticalAlign=middle;resizable=0;points=[];autosize=1;" parent="WIyWlLk6GJQsqaUBKTNV-1" vertex="1">
          <mxGeometry x="930" y="300" width="20" height="20" as="geometry" />
        </mxCell>
        <mxCell id="T6Tp6hZ9WiSjCjkS2Gaq-113" value="#nave" style="text;html=1;align=center;verticalAlign=middle;resizable=0;points=[];autosize=1;" parent="WIyWlLk6GJQsqaUBKTNV-1" vertex="1">
          <mxGeometry x="915" y="330" width="50" height="20" as="geometry" />
        </mxCell>
        <mxCell id="T6Tp6hZ9WiSjCjkS2Gaq-114" value="1" style="text;html=1;align=center;verticalAlign=middle;resizable=0;points=[];autosize=1;" parent="WIyWlLk6GJQsqaUBKTNV-1" vertex="1">
          <mxGeometry x="770" y="280" width="20" height="20" as="geometry" />
        </mxCell>
        <mxCell id="T6Tp6hZ9WiSjCjkS2Gaq-115" value="#nave" style="text;html=1;align=center;verticalAlign=middle;resizable=0;points=[];autosize=1;" parent="WIyWlLk6GJQsqaUBKTNV-1" vertex="1">
          <mxGeometry x="800" y="314" width="50" height="20" as="geometry" />
        </mxCell>
        <mxCell id="T6Tp6hZ9WiSjCjkS2Gaq-116" value="1" style="text;html=1;align=center;verticalAlign=middle;resizable=0;points=[];autosize=1;" parent="WIyWlLk6GJQsqaUBKTNV-1" vertex="1">
          <mxGeometry x="1261" y="164" width="20" height="20" as="geometry" />
        </mxCell>
        <mxCell id="T6Tp6hZ9WiSjCjkS2Gaq-117" value="#premio" style="text;html=1;align=center;verticalAlign=middle;resizable=0;points=[];autosize=1;" parent="WIyWlLk6GJQsqaUBKTNV-1" vertex="1">
          <mxGeometry x="1291" y="164" width="60" height="20" as="geometry" />
        </mxCell>
        <mxCell id="T6Tp6hZ9WiSjCjkS2Gaq-118" value="1" style="text;html=1;align=center;verticalAlign=middle;resizable=0;points=[];autosize=1;" parent="WIyWlLk6GJQsqaUBKTNV-1" vertex="1">
          <mxGeometry x="170" y="300" width="20" height="20" as="geometry" />
        </mxCell>
        <mxCell id="T6Tp6hZ9WiSjCjkS2Gaq-119" value="#proyectil" style="text;html=1;align=center;verticalAlign=middle;resizable=0;points=[];autosize=1;" parent="WIyWlLk6GJQsqaUBKTNV-1" vertex="1">
          <mxGeometry x="190" y="330" width="70" height="20" as="geometry" />
        </mxCell>
        <mxCell id="T6Tp6hZ9WiSjCjkS2Gaq-120" value="1" style="text;html=1;align=center;verticalAlign=middle;resizable=0;points=[];autosize=1;" parent="WIyWlLk6GJQsqaUBKTNV-1" vertex="1">
          <mxGeometry x="-50" y="332" width="20" height="20" as="geometry" />
        </mxCell>
        <mxCell id="T6Tp6hZ9WiSjCjkS2Gaq-124" value="#proyectil" style="text;html=1;align=center;verticalAlign=middle;resizable=0;points=[];autosize=1;" parent="WIyWlLk6GJQsqaUBKTNV-1" vertex="1">
          <mxGeometry x="-30" y="348" width="70" height="20" as="geometry" />
        </mxCell>
        <mxCell id="T6Tp6hZ9WiSjCjkS2Gaq-131" style="edgeStyle=orthogonalEdgeStyle;rounded=0;orthogonalLoop=1;jettySize=auto;html=1;exitX=0.5;exitY=0;exitDx=0;exitDy=0;entryX=0.5;entryY=1;entryDx=0;entryDy=0;startArrow=none;startFill=0;startSize=14;endArrow=block;endFill=0;endSize=14;" parent="WIyWlLk6GJQsqaUBKTNV-1" source="T6Tp6hZ9WiSjCjkS2Gaq-127" target="AaCoDPqQn8ZPXxicRVi0-38" edge="1">
          <mxGeometry relative="1" as="geometry" />
        </mxCell>
        <mxCell id="T6Tp6hZ9WiSjCjkS2Gaq-127" value="MovimientoVerticalNulo" style="swimlane;fontStyle=1;align=center;verticalAlign=top;childLayout=stackLayout;horizontal=1;startSize=26;horizontalStack=0;resizeParent=1;resizeParentMax=0;resizeLast=0;collapsible=1;marginBottom=0;" parent="WIyWlLk6GJQsqaUBKTNV-1" vertex="1" collapsed="1">
          <mxGeometry x="840" y="-380" width="200" height="26" as="geometry">
            <mxRectangle x="660" y="-196" width="310" height="86" as="alternateBounds" />
          </mxGeometry>
        </mxCell>
        <mxCell id="T6Tp6hZ9WiSjCjkS2Gaq-128" value="+MovimientoVerticalAcelerado(Entidad e,Pair&lt;int,int&gt; d)" style="text;strokeColor=none;fillColor=none;align=left;verticalAlign=top;spacingLeft=4;spacingRight=4;overflow=hidden;rotatable=0;points=[[0,0.5],[1,0.5]];portConstraint=eastwest;" parent="T6Tp6hZ9WiSjCjkS2Gaq-127" vertex="1">
          <mxGeometry y="26" width="200" height="26" as="geometry" />
        </mxCell>
        <mxCell id="T6Tp6hZ9WiSjCjkS2Gaq-129" value="" style="line;strokeWidth=1;fillColor=none;align=left;verticalAlign=middle;spacingTop=-1;spacingLeft=3;spacingRight=3;rotatable=0;labelPosition=right;points=[];portConstraint=eastwest;" parent="T6Tp6hZ9WiSjCjkS2Gaq-127" vertex="1">
          <mxGeometry y="52" width="200" height="8" as="geometry" />
        </mxCell>
        <mxCell id="T6Tp6hZ9WiSjCjkS2Gaq-130" value="+mover()++" style="text;strokeColor=none;fillColor=none;align=left;verticalAlign=top;spacingLeft=4;spacingRight=4;overflow=hidden;rotatable=0;points=[[0,0.5],[1,0.5]];portConstraint=eastwest;" parent="T6Tp6hZ9WiSjCjkS2Gaq-127" vertex="1">
          <mxGeometry y="60" width="200" height="26" as="geometry" />
        </mxCell>
        <mxCell id="T6Tp6hZ9WiSjCjkS2Gaq-139" style="edgeStyle=orthogonalEdgeStyle;rounded=0;orthogonalLoop=1;jettySize=auto;html=1;exitX=1;exitY=0.5;exitDx=0;exitDy=0;entryX=0;entryY=0.5;entryDx=0;entryDy=0;startArrow=none;startFill=0;startSize=14;endArrow=block;endFill=0;endSize=14;" parent="WIyWlLk6GJQsqaUBKTNV-1" source="T6Tp6hZ9WiSjCjkS2Gaq-138" target="vrZAYbkZ-h7YE_ZRuM2D-73" edge="1">
          <mxGeometry relative="1" as="geometry" />
        </mxCell>
        <mxCell id="T6Tp6hZ9WiSjCjkS2Gaq-138" value="Tanda" style="html=1;fontStyle=1" parent="WIyWlLk6GJQsqaUBKTNV-1" vertex="1">
          <mxGeometry x="-1230" y="341.5" width="80" height="27" as="geometry" />
        </mxCell>
        <mxCell id="T6Tp6hZ9WiSjCjkS2Gaq-142" style="edgeStyle=orthogonalEdgeStyle;rounded=0;orthogonalLoop=1;jettySize=auto;html=1;exitX=0.5;exitY=0;exitDx=0;exitDy=0;entryX=0.5;entryY=1;entryDx=0;entryDy=0;startArrow=none;startFill=0;startSize=14;endArrow=block;endFill=0;endSize=14;" parent="WIyWlLk6GJQsqaUBKTNV-1" source="T6Tp6hZ9WiSjCjkS2Gaq-140" target="T6Tp6hZ9WiSjCjkS2Gaq-138" edge="1">
          <mxGeometry relative="1" as="geometry" />
        </mxCell>
        <mxCell id="T6Tp6hZ9WiSjCjkS2Gaq-140" value="TandaEspecial" style="html=1;fontStyle=1" parent="WIyWlLk6GJQsqaUBKTNV-1" vertex="1">
          <mxGeometry x="-1245" y="479.01" width="110" height="27" as="geometry" />
        </mxCell>
        <mxCell id="T6Tp6hZ9WiSjCjkS2Gaq-146" style="edgeStyle=orthogonalEdgeStyle;rounded=0;orthogonalLoop=1;jettySize=auto;html=1;exitX=0.5;exitY=0;exitDx=0;exitDy=0;entryX=0.5;entryY=1;entryDx=0;entryDy=0;startArrow=none;startFill=0;startSize=14;endArrow=block;endFill=0;endSize=14;" parent="WIyWlLk6GJQsqaUBKTNV-1" source="T6Tp6hZ9WiSjCjkS2Gaq-144" target="-q3Nb7MG7wlZvP0WR283-83" edge="1">
          <mxGeometry relative="1" as="geometry">
            <Array as="points">
              <mxPoint x="-390" y="450" />
              <mxPoint x="-540" y="450" />
            </Array>
          </mxGeometry>
        </mxCell>
        <mxCell id="T6Tp6hZ9WiSjCjkS2Gaq-144" value="FabricaNaveGamma" style="html=1;fontStyle=1" parent="WIyWlLk6GJQsqaUBKTNV-1" vertex="1">
          <mxGeometry x="-450" y="478.01" width="120" height="27" as="geometry" />
        </mxCell>
        <mxCell id="T6Tp6hZ9WiSjCjkS2Gaq-153" value="1" style="text;html=1;align=center;verticalAlign=middle;resizable=0;points=[];autosize=1;" parent="WIyWlLk6GJQsqaUBKTNV-1" vertex="1">
          <mxGeometry x="-720" y="516" width="20" height="20" as="geometry" />
        </mxCell>
        <mxCell id="T6Tp6hZ9WiSjCjkS2Gaq-155" value="#fabricaNaveAlpha" style="text;html=1;align=center;verticalAlign=middle;resizable=0;points=[];autosize=1;" parent="WIyWlLk6GJQsqaUBKTNV-1" vertex="1">
          <mxGeometry x="-810" y="414" width="120" height="20" as="geometry" />
        </mxCell>
        <mxCell id="T6Tp6hZ9WiSjCjkS2Gaq-156" value="1" style="text;html=1;align=center;verticalAlign=middle;resizable=0;points=[];autosize=1;" parent="WIyWlLk6GJQsqaUBKTNV-1" vertex="1">
          <mxGeometry x="-560" y="521" width="20" height="20" as="geometry" />
        </mxCell>
        <mxCell id="T6Tp6hZ9WiSjCjkS2Gaq-157" value="#fabricaNaveBeta" style="text;html=1;align=center;verticalAlign=middle;resizable=0;points=[];autosize=1;" parent="WIyWlLk6GJQsqaUBKTNV-1" vertex="1">
          <mxGeometry x="-670" y="539" width="110" height="20" as="geometry" />
        </mxCell>
        <mxCell id="T6Tp6hZ9WiSjCjkS2Gaq-158" value="#fabricaNaveGamma" style="text;html=1;align=center;verticalAlign=middle;resizable=0;points=[];autosize=1;" parent="WIyWlLk6GJQsqaUBKTNV-1" vertex="1">
          <mxGeometry x="-520" y="550" width="130" height="20" as="geometry" />
        </mxCell>
        <mxCell id="T6Tp6hZ9WiSjCjkS2Gaq-160" value="1" style="text;html=1;align=center;verticalAlign=middle;resizable=0;points=[];autosize=1;" parent="WIyWlLk6GJQsqaUBKTNV-1" vertex="1">
          <mxGeometry x="-413" y="520" width="20" height="20" as="geometry" />
        </mxCell>
        <mxCell id="T6Tp6hZ9WiSjCjkS2Gaq-164" value="1" style="text;html=1;align=center;verticalAlign=middle;resizable=0;points=[];autosize=1;" parent="WIyWlLk6GJQsqaUBKTNV-1" vertex="1">
          <mxGeometry x="-760" y="210" width="20" height="20" as="geometry" />
        </mxCell>
        <mxCell id="T6Tp6hZ9WiSjCjkS2Gaq-165" value="1" style="text;html=1;align=center;verticalAlign=middle;resizable=0;points=[];autosize=1;" parent="WIyWlLk6GJQsqaUBKTNV-1" vertex="1">
          <mxGeometry x="-350" y="210" width="20" height="20" as="geometry" />
        </mxCell>
        <mxCell id="T6Tp6hZ9WiSjCjkS2Gaq-166" value="1" style="text;html=1;align=center;verticalAlign=middle;resizable=0;points=[];autosize=1;" parent="WIyWlLk6GJQsqaUBKTNV-1" vertex="1">
          <mxGeometry x="-560" y="210" width="20" height="20" as="geometry" />
        </mxCell>
        <mxCell id="T6Tp6hZ9WiSjCjkS2Gaq-167" value="#fabricaPocion" style="text;html=1;align=center;verticalAlign=middle;resizable=0;points=[];autosize=1;" parent="WIyWlLk6GJQsqaUBKTNV-1" vertex="1">
          <mxGeometry x="-870" y="210" width="100" height="20" as="geometry" />
        </mxCell>
        <mxCell id="T6Tp6hZ9WiSjCjkS2Gaq-168" value="#fabricaCuarentena" style="text;html=1;align=center;verticalAlign=middle;resizable=0;points=[];autosize=1;" parent="WIyWlLk6GJQsqaUBKTNV-1" vertex="1">
          <mxGeometry x="-690" y="230" width="120" height="20" as="geometry" />
        </mxCell>
        <mxCell id="T6Tp6hZ9WiSjCjkS2Gaq-169" value="#fabricaSuperArma" style="text;html=1;align=center;verticalAlign=middle;resizable=0;points=[];autosize=1;" parent="WIyWlLk6GJQsqaUBKTNV-1" vertex="1">
          <mxGeometry x="-463" y="260" width="120" height="20" as="geometry" />
        </mxCell>
        <mxCell id="T6Tp6hZ9WiSjCjkS2Gaq-171" style="edgeStyle=orthogonalEdgeStyle;rounded=0;orthogonalLoop=1;jettySize=auto;html=1;exitX=0.25;exitY=1;exitDx=0;exitDy=0;entryX=0.5;entryY=0;entryDx=0;entryDy=0;startArrow=none;startFill=0;startSize=14;endArrow=open;endFill=0;endSize=14;" parent="WIyWlLk6GJQsqaUBKTNV-1" source="T6Tp6hZ9WiSjCjkS2Gaq-170" target="vrZAYbkZ-h7YE_ZRuM2D-73" edge="1">
          <mxGeometry relative="1" as="geometry" />
        </mxCell>
        <mxCell id="T6Tp6hZ9WiSjCjkS2Gaq-172" style="edgeStyle=orthogonalEdgeStyle;rounded=0;orthogonalLoop=1;jettySize=auto;html=1;exitX=1;exitY=0.75;exitDx=0;exitDy=0;startArrow=none;startFill=0;startSize=14;endArrow=open;endFill=0;endSize=14;entryX=0.25;entryY=0;entryDx=0;entryDy=0;" parent="WIyWlLk6GJQsqaUBKTNV-1" source="T6Tp6hZ9WiSjCjkS2Gaq-170" target="vrZAYbkZ-h7YE_ZRuM2D-8" edge="1">
          <mxGeometry relative="1" as="geometry">
            <mxPoint x="270" y="-160" as="targetPoint" />
          </mxGeometry>
        </mxCell>
        <mxCell id="T6Tp6hZ9WiSjCjkS2Gaq-177" style="edgeStyle=orthogonalEdgeStyle;rounded=0;orthogonalLoop=1;jettySize=auto;html=1;exitX=0.5;exitY=1;exitDx=0;exitDy=0;entryX=0;entryY=0.5;entryDx=0;entryDy=0;startArrow=none;startFill=0;startSize=14;endArrow=open;endFill=0;endSize=14;" parent="WIyWlLk6GJQsqaUBKTNV-1" source="T6Tp6hZ9WiSjCjkS2Gaq-170" target="vrZAYbkZ-h7YE_ZRuM2D-12" edge="1">
          <mxGeometry relative="1" as="geometry">
            <Array as="points">
              <mxPoint x="-600" y="30" />
              <mxPoint x="-180" y="30" />
              <mxPoint x="-180" y="250" />
              <mxPoint x="800" y="250" />
              <mxPoint x="800" y="275" />
            </Array>
          </mxGeometry>
        </mxCell>
        <mxCell id="T6Tp6hZ9WiSjCjkS2Gaq-182" style="edgeStyle=orthogonalEdgeStyle;rounded=0;orthogonalLoop=1;jettySize=auto;html=1;exitX=0;exitY=0.5;exitDx=0;exitDy=0;entryX=1;entryY=0.5;entryDx=0;entryDy=0;startArrow=diamondThin;startFill=0;startSize=14;endArrow=none;endFill=0;endSize=14;" parent="WIyWlLk6GJQsqaUBKTNV-1" source="T6Tp6hZ9WiSjCjkS2Gaq-170" target="T6Tp6hZ9WiSjCjkS2Gaq-180" edge="1">
          <mxGeometry relative="1" as="geometry" />
        </mxCell>
        <mxCell id="RE9s3WU7AKmQkzKlsmss-6" style="edgeStyle=orthogonalEdgeStyle;rounded=0;orthogonalLoop=1;jettySize=auto;html=1;exitX=1;exitY=0.25;exitDx=0;exitDy=0;endArrow=open;endFill=0;endSize=14;entryX=0.5;entryY=0;entryDx=0;entryDy=0;" edge="1" parent="WIyWlLk6GJQsqaUBKTNV-1" source="T6Tp6hZ9WiSjCjkS2Gaq-170" target="-q3Nb7MG7wlZvP0WR283-0">
          <mxGeometry relative="1" as="geometry">
            <mxPoint x="120" y="-280" as="targetPoint" />
          </mxGeometry>
        </mxCell>
        <mxCell id="T6Tp6hZ9WiSjCjkS2Gaq-170" value="Juego" style="html=1;fontStyle=1" parent="WIyWlLk6GJQsqaUBKTNV-1" vertex="1">
          <mxGeometry x="-640" y="-210" width="80" height="27" as="geometry" />
        </mxCell>
        <mxCell id="T6Tp6hZ9WiSjCjkS2Gaq-173" value="0..*" style="text;html=1;align=center;verticalAlign=middle;resizable=0;points=[];autosize=1;" parent="WIyWlLk6GJQsqaUBKTNV-1" vertex="1">
          <mxGeometry x="370" y="-130" width="30" height="20" as="geometry" />
        </mxCell>
        <mxCell id="T6Tp6hZ9WiSjCjkS2Gaq-174" value="#entidades" style="text;html=1;align=center;verticalAlign=middle;resizable=0;points=[];autosize=1;" parent="WIyWlLk6GJQsqaUBKTNV-1" vertex="1">
          <mxGeometry x="320" y="-160" width="80" height="20" as="geometry" />
        </mxCell>
        <mxCell id="T6Tp6hZ9WiSjCjkS2Gaq-175" value="1" style="text;html=1;align=center;verticalAlign=middle;resizable=0;points=[];autosize=1;" parent="WIyWlLk6GJQsqaUBKTNV-1" vertex="1">
          <mxGeometry x="-980" y="300" width="20" height="20" as="geometry" />
        </mxCell>
        <mxCell id="T6Tp6hZ9WiSjCjkS2Gaq-176" value="#nivel" style="text;html=1;align=center;verticalAlign=middle;resizable=0;points=[];autosize=1;" parent="WIyWlLk6GJQsqaUBKTNV-1" vertex="1">
          <mxGeometry x="-1010" y="265" width="50" height="20" as="geometry" />
        </mxCell>
        <mxCell id="T6Tp6hZ9WiSjCjkS2Gaq-178" value="1" style="text;html=1;align=center;verticalAlign=middle;resizable=0;points=[];autosize=1;" parent="WIyWlLk6GJQsqaUBKTNV-1" vertex="1">
          <mxGeometry x="800" y="245" width="20" height="20" as="geometry" />
        </mxCell>
        <mxCell id="T6Tp6hZ9WiSjCjkS2Gaq-179" value="#jugador" style="text;html=1;align=center;verticalAlign=middle;resizable=0;points=[];autosize=1;" parent="WIyWlLk6GJQsqaUBKTNV-1" vertex="1">
          <mxGeometry x="500" y="225" width="60" height="20" as="geometry" />
        </mxCell>
        <mxCell id="T6Tp6hZ9WiSjCjkS2Gaq-183" style="edgeStyle=orthogonalEdgeStyle;rounded=0;orthogonalLoop=1;jettySize=auto;html=1;exitX=0.5;exitY=0;exitDx=0;exitDy=0;entryX=0;entryY=0.5;entryDx=0;entryDy=0;startArrow=none;startFill=0;startSize=14;endArrow=open;endFill=0;endSize=14;" parent="WIyWlLk6GJQsqaUBKTNV-1" source="T6Tp6hZ9WiSjCjkS2Gaq-180" target="T6Tp6hZ9WiSjCjkS2Gaq-181" edge="1">
          <mxGeometry relative="1" as="geometry" />
        </mxCell>
        <mxCell id="T6Tp6hZ9WiSjCjkS2Gaq-180" value="Gui" style="html=1;fontStyle=1" parent="WIyWlLk6GJQsqaUBKTNV-1" vertex="1">
          <mxGeometry x="-990" y="-210" width="80" height="27" as="geometry" />
        </mxCell>
        <mxCell id="T6Tp6hZ9WiSjCjkS2Gaq-184" style="edgeStyle=orthogonalEdgeStyle;rounded=0;orthogonalLoop=1;jettySize=auto;html=1;exitX=0.5;exitY=1;exitDx=0;exitDy=0;entryX=0.5;entryY=0;entryDx=0;entryDy=0;startArrow=none;startFill=0;startSize=14;endArrow=open;endFill=0;endSize=14;" parent="WIyWlLk6GJQsqaUBKTNV-1" source="T6Tp6hZ9WiSjCjkS2Gaq-181" target="T6Tp6hZ9WiSjCjkS2Gaq-170" edge="1">
          <mxGeometry relative="1" as="geometry" />
        </mxCell>
        <mxCell id="T6Tp6hZ9WiSjCjkS2Gaq-181" value="Mente" style="html=1;fontStyle=1" parent="WIyWlLk6GJQsqaUBKTNV-1" vertex="1">
          <mxGeometry x="-640" y="-381" width="80" height="27" as="geometry" />
        </mxCell>
        <mxCell id="T6Tp6hZ9WiSjCjkS2Gaq-185" value="1" style="text;html=1;align=center;verticalAlign=middle;resizable=0;points=[];autosize=1;" parent="WIyWlLk6GJQsqaUBKTNV-1" vertex="1">
          <mxGeometry x="-625" y="-250" width="20" height="20" as="geometry" />
        </mxCell>
        <mxCell id="T6Tp6hZ9WiSjCjkS2Gaq-186" value="-juego" style="text;html=1;align=center;verticalAlign=middle;resizable=0;points=[];autosize=1;" parent="WIyWlLk6GJQsqaUBKTNV-1" vertex="1">
          <mxGeometry x="-650" y="-280" width="50" height="20" as="geometry" />
        </mxCell>
        <mxCell id="T6Tp6hZ9WiSjCjkS2Gaq-187" value="1" style="text;html=1;align=center;verticalAlign=middle;resizable=0;points=[];autosize=1;" parent="WIyWlLk6GJQsqaUBKTNV-1" vertex="1">
          <mxGeometry x="-910" y="-220" width="20" height="20" as="geometry" />
        </mxCell>
        <mxCell id="T6Tp6hZ9WiSjCjkS2Gaq-188" value="-gui" style="text;html=1;align=center;verticalAlign=middle;resizable=0;points=[];autosize=1;" parent="WIyWlLk6GJQsqaUBKTNV-1" vertex="1">
          <mxGeometry x="-890" y="-220" width="40" height="20" as="geometry" />
        </mxCell>
        <mxCell id="T6Tp6hZ9WiSjCjkS2Gaq-189" value="1" style="text;html=1;align=center;verticalAlign=middle;resizable=0;points=[];autosize=1;" parent="WIyWlLk6GJQsqaUBKTNV-1" vertex="1">
          <mxGeometry x="-680" y="-390" width="20" height="20" as="geometry" />
        </mxCell>
        <mxCell id="T6Tp6hZ9WiSjCjkS2Gaq-190" value="-mente" style="text;html=1;align=center;verticalAlign=middle;resizable=0;points=[];autosize=1;" parent="WIyWlLk6GJQsqaUBKTNV-1" vertex="1">
          <mxGeometry x="-750" y="-390" width="50" height="20" as="geometry" />
        </mxCell>
        <mxCell id="T6Tp6hZ9WiSjCjkS2Gaq-195" value="1" style="text;html=1;align=center;verticalAlign=middle;resizable=0;points=[];autosize=1;" parent="WIyWlLk6GJQsqaUBKTNV-1" vertex="1">
          <mxGeometry x="410" y="-120" width="20" height="20" as="geometry" />
        </mxCell>
        <mxCell id="RE9s3WU7AKmQkzKlsmss-12" style="edgeStyle=orthogonalEdgeStyle;rounded=0;orthogonalLoop=1;jettySize=auto;html=1;exitX=0;exitY=0.5;exitDx=0;exitDy=0;entryX=1;entryY=0.5;entryDx=0;entryDy=0;endArrow=open;endFill=0;endSize=14;" edge="1" parent="WIyWlLk6GJQsqaUBKTNV-1" source="RE9s3WU7AKmQkzKlsmss-0" target="T6Tp6hZ9WiSjCjkS2Gaq-181">
          <mxGeometry relative="1" as="geometry" />
        </mxCell>
        <mxCell id="RE9s3WU7AKmQkzKlsmss-0" value="Main" style="html=1;fontStyle=1" vertex="1" parent="WIyWlLk6GJQsqaUBKTNV-1">
          <mxGeometry x="-240" y="-381" width="80" height="27" as="geometry" />
        </mxCell>
        <mxCell id="RE9s3WU7AKmQkzKlsmss-9" value="2" style="text;html=1;align=center;verticalAlign=middle;resizable=0;points=[];autosize=1;" vertex="1" parent="WIyWlLk6GJQsqaUBKTNV-1">
          <mxGeometry x="1330" y="-300" width="20" height="20" as="geometry" />
        </mxCell>
        <mxCell id="RE9s3WU7AKmQkzKlsmss-10" value="#visitorRemover, visitorDisparo" style="text;html=1;align=center;verticalAlign=middle;resizable=0;points=[];autosize=1;" vertex="1" parent="WIyWlLk6GJQsqaUBKTNV-1">
          <mxGeometry x="1120" y="-310" width="190" height="20" as="geometry" />
        </mxCell>
        <mxCell id="RE9s3WU7AKmQkzKlsmss-13" value="1" style="text;html=1;align=center;verticalAlign=middle;resizable=0;points=[];autosize=1;" vertex="1" parent="WIyWlLk6GJQsqaUBKTNV-1">
          <mxGeometry x="-530" y="-390" width="20" height="20" as="geometry" />
        </mxCell>
        <mxCell id="RE9s3WU7AKmQkzKlsmss-14" value="-mente" style="text;html=1;align=center;verticalAlign=middle;resizable=0;points=[];autosize=1;" vertex="1" parent="WIyWlLk6GJQsqaUBKTNV-1">
          <mxGeometry x="-480" y="-390" width="50" height="20" as="geometry" />
        </mxCell>
      </root>
    </mxGraphModel>
  </diagram>
</mxfile>
